<svg xmlns="http://www.w3.org/2000/svg" viewBox="0 0 840 840">
  <filter id="a" width="2" height="2" x="0" y="0">
    <feOffset result="offOut" in="SourceGraphic" dx="20" dy="20"/>
    <feColorMatrix result="matrixOut" in="offOut" values="0.2 0 0 0 0 0 0.2 0 0 0 0 0 0.2 0 0 0 0 0 1 0"/>
    <feGaussianBlur result="blurOut" in="matrixOut" stdDeviation="15"/>
    <feBlend in="SourceGraphic" in2="blurOut"/>
  </filter>
  <path fill="#5bc6cc" d="M356.3 67.65c-80 19.5-214.24 81.63-265.24 216.87-51 135.25-32.36 296.86 36.24 347.86 68.64 51 248.63 188.12 395.62 136 147-52.13 233-195.37 249.37-308.24 16.3-112.87-15.4-206.24-85.4-268C605.5 120.4 496 33.54 356.3 67.64z" class="st13" filter="url(#a)"/>
  <path fill="#7f3f98" stroke="#7f3f98" stroke-width="5.81" stroke-miterlimit="10" d="M375.68 235.9c-39.87 9.75-106.75 40.62-132.12 108-25.38 67.37-16.13 147.86 18.12 173.24 34.25 25.37 123.87 93.74 197.12 67.74s116-97.37 124.25-153.62c8.25-56.24-7.63-102.74-42.5-133.5-40.63-35.6-95.25-78.86-164.87-61.86z" class="st15"/>
  <path fill="#f4d438" d="M228.8 271.52c-5.12-5.5-8.74-7.62-10.87-6.25l-5.87-3.25 5.5 6c.12.13 12.75 14.88 13.75 23.88.2 1.5 0 3.5-1.6 4.5-1.6 1.12-6.8 2.62-21.8-5.5-20.9-11.38-57.9-44.38-58.4-44.75l-6.7.25-4.9 7 1.4 1c.5.37 2.6 2 5.9 4.5-3-1-2.1-3.38-4.2-3.25-1.3.12-5.3.25-9 6.37-1.6 2.63-1.8 7.88-.1 12.25 3.4 8.13 15.1 23.75 31.3 36.12 13.4 10.2 27.6 18.7 36.4 19.8 6.7.8 12.8-.2 14.8-1.7 1.6-1.3-4.5-2.3-4.6-4.8-.3-7.7-6-20.2-19.6-34 14.3 8.7 28.4 15.6 37.4 16.6 8.9 1.1 9.4 0 11.2-.3 3.7-.5 6.1-2.4 7.5-5.2 4.7-9-13.5-25.9-17-29.6z" class="st18"/>
  <path fill="#f4d438" d="M314.93 210.4c1.75 1.5 8.38 6.75 7.88 9-1.2 5.5-8.5 17-16.1 15.62-9.3-1.75-56-51.12-70.3-61.75-14.3-10.62-14.5-9-11-1 5.9 13.38 54.7 79 49.5 84.38-10.5 11-73.2-53.25-78.2-55.88-4.7-2.5 19.6 33.63 27.6 47.38 6.8 11.87 17.5 22.62 7.2 29.75-2.6 1.75-6.3-3.25-9.3-6.25-13.8-13.25-40.5-43.13-50.1-57.5-.7-1.13 1.8 3.12 2 4.5.9 4.87 1.4 4.25 2.7 13.87 1.3 10.25-.1 14.63-6.5 15.88-7 1.37-11.2.37-13.6-5.25-5-12 9.3-14.75 11.5-12.13 1.9 2.38-7 6.38-5.1 9.88 1.9 3.5 7.1 4.12 6.3-8.63-.6-8.87-5.6-23.75-5.1-26.5.9-5.12 8.9-5.87 11.9-2.25 3 3.63 45.2 55.38 48.6 58.75 3.4 3.38 7.4 9.13-14.4-22.87s-26.6-42.13-26.6-48.75c-.1-5.63 5.6-8 11.1-5.38 3.9 1.75 5.3 8 13.2 14.38 19.1 15.62 49.1 47.62 50.6 46.75 1.5-.88-3.6-6.63-19.2-31.63-15.5-25-26.6-42.25-23.6-51.62 3.1-9.5 15.6-10.62 28.6-.25 12.9 10.37 46.2 47.62 53.5 52.62 8.4 5.75 10.7 5.25 11.9 2.13 1.5-3.88 2.7-10.88 6-8.25l-.4 1z" class="st18"/>
  <path fill="#f4d438" d="M372.8 166.77c-6.62 2.25-2.5 6.38-3.5 18.75-1 12.38-6.5 16.63-13.37 17.25-6.88.63-17.5-14.75-24.25-29.25-6.75-14.37-10.62-48.74-11.25-57.62-.62-8.87-8.37-5.87-11.37-5-2.75.75-2.13 5.13-2.13 5.13s.75 8.62 4.25 22c-5.37-10.88-5.5-20.75-9.75-21.63-13.87-3-25.12 8.63-18.25 37.88 6.88 29.24 23.75 52 29.75 56.74 6 4.75 16.75 2.13 12.63-27.25-.5-3.87-1.25-7.75-2.25-11.75 10.4 22.5 21.7 37 42.5 34.63 10.8-1.25 15.9-27.25 16.2-37.63 0-5.74-7.4-2.87-9.1-2.25z" class="st18"/>
  <path d="M235.68 271.27c-5.12-5.5-8.75-7.62-10.87-6.25l-1.7 1.13.8 2.37c.2.13 13.3 14 14.3 23 .1 1.5 0 3.5-1.6 4.5-1.6 1.13-6.8 2.62-21.8-5.5-20.9-11.37-63.2-43-63.6-43.37l-1.5-1.13-4.9 7 1.4 1 5.9 4.5c-3-1-5.6-1.5-7.7-1.25-1.3.13-4.6 1.88-6.6 4.88-1.2 2-2.2 5.25-.5 9.62 3.4 8.13 16.7 26 32.8 38.37 13.4 10.25 27.6 18.75 36.4 19.88 2.4.25 5.9.25 8-1.38 1.6-1.25 2.4-2.5 2.3-5.12-.3-7.63-6-20.13-19.6-34 14.3 8.75 28.4 15.87 37.4 16.62 2.1.25 4.1.13 5.8 0 3.8-.5 6.3-2.12 7.7-4.75 4.8-9.2-8.2-26.4-11.7-30.2z"/>
  <path stroke="#000" stroke-width="1.94" stroke-miterlimit="10" d="M321.8 210.15c1.76 1.5 2.63 3.75 2.13 6-1.25 5.5-6.75 16.75-14.37 15.37-9.38-1.75-52-47.75-66.38-58.37-14.37-10.62-14.5-9-11-1 5.88 13.37 47.38 77.62 42.63 83.5-6 7.37-66.3-52.25-71.3-55-4.7-2.5 19.6 33.62 27.6 47.37 6.8 11.88 17.5 22.63 7.1 29.75-2.6 1.75-6.3-3.25-9.3-6.25-13.8-13.25-40.5-43.12-50.1-57.5-.7-1.12-2.6.13-2.5 1.5.9 4.88 1.1 6.75 2.3 16.38 2.1 17.12-13.9 18.75-17.1 11.25-3.3-7.5 4.3-13.38 4.7-10.38.4 3-3.4 6-1.5 9.38 1.9 3.37 12 2.75 11-10.13-.6-8.87-6-23.87-5.1-26.5.9-2.62 4.4-2.75 7.3.75 3 3.5 49.9 52.25 53.3 55.63 3.4 3.37 7.4 9.12-14.4-22.88s-26.1-42.12-26.6-48.75c-.5-6.62 5.2-6.62 24.3 9 19.1 15.63 49.1 47.63 50.6 46.75 1.7-.87-3.6-6.62-19.2-31.62-15.5-25-26.6-42.25-23.6-51.62 3.1-9.5 16-5.88 28.9 4.5 12.8 10.37 46 42.87 53.2 48 8.3 5.74 10.7 5.24 11.8 2.12 1.5-3.88 1.1-11 4.4-8.25l1.7 1z" class="st19"/>
  <path stroke="#000" stroke-width="2.9" stroke-miterlimit="10" d="M379.93 168.15c-7 .5-2.75 4.62-3.88 17-1 12.37-6.5 16.62-13.37 17.25-6.88.62-17.5-14.75-24.25-29.25-6.75-14.37-16.75-43.5-17.37-52.37-.63-8.88-2.25-7.63-5.13-7.5-2.87.12-2.37 2.25-2.37 2.25s.75 8.62 4.25 22c-5.3-10.88-11.2-18.63-15.5-19.63-10.8-2.5-19.5 6.63-12.6 35.88 6.9 29.24 23.8 52 29.8 56.74 6 4.75 16.8 2.13 12.7-27.25-.5-3.87-1.2-7.75-2.2-11.75 10.4 22.5 22.5 35.25 37.5 33.13 16.8-2.13 17.5-36.88 12.7-36.5z" class="st20"/>
  <path fill="#5bc6cc" d="M143.94 269.52c1.25 2.63 6.5 12.5 27.12 30.75 20.75 18.12 29.25 20.87 33 18.62 2.75-1.8-1.12-12.5-14.12-25.7-13-13.3-31-24.1-38.5-26.9-7.63-2.9-8.75.6-7.5 3.1z" class="st13" filter="url(#a)"/>
  <path fill="#f4d438" d="M190.3 329.27c-3.74-.38-13.74 2.5-6.5 8.37 7.5 6.13 15.4 11.13 15.4 11.13.24.37-.4.5-1.5.5-5.5-2.75-13.4-6.63-22.26-10.88-14.74-7.2-31.64-15.4-42.14-20.8-13.24-6.8-16.6-9.9-20.86-10.5-2.5-.4-7.88.3-8.88 1-1.5.7-2.25 2.2-2.5 4.3-.62 5.6 10.5 15.1 20.13 22.7 1.6 1.2 6.1 4.6 11.8 8.8 12.1 9 32.9 24.5 40.6 31-2.5-1.1-5.8-2.6-9.2-4.1-8.6-4-20.6-9.6-31.5-13.5-4.5-1.6-8.9-3.3-13-4.8-9.1-3.5-12.8-6.8-17.9-7.5-2.5-.4-8.3.2-9.7.8-1.1.5-1.8 1.4-2.1 2.5-1.7 5.4 7.6 12.7 20.8 22.5 2.7 2 5.4 3.9 7.5 5.6 3 2.3 8.4 6.5 14.6 11.1 9.5 7.2 22.8 17.2 29.3 22.6-7-3-20.3-9.1-32.3-14.6-19.5-9-33.8-18-36.9-18.8-3.3-.8-10.1.5-11.6 2.6-1.8 2.2-1.6 5.7.4 9.6 2.2 4.1 12.5 19.2 21.5 32.5 5.5 8.1 10.4 15.2 12.4 18.3.3.6.7 1.1.8 1.5-1.6-.8-4.9-2.6-7.1-4-1.5-1-.3-3.4-1.6-4.3-3.3-1.9-7.5-.9-9.3.1-1.4.8-2 1.2-2.3 2-.1.6-.3 1.2-.1 2.3.3.9.4 1.4 1.5 2.6 1 1.1 1.6 1.6 4.4 3.8 6.5 4.9 14.4 11.8 21 11.1 2.1-.1 9-1.1 9.9-2.9 2-3.9-4.6-11.2-11.4-20-2.1-2.9-5-6.5-8.3-10.6l-21-31.4h1.7l24 10.9c22.6 9.6 50.6 21 56.8 23.3 7.1 2.82 20.2 5.1 24.5 4.6 2-.3-2.4-1.3-1.7-3.8 1.3-4.5-16.5-15.64-33.6-26.4L125.7 371c-11.6-8.72-21.1-15.5-21.1-15.5s88.4 39 94 40.4c2.9.74 10.9.5 11.5-2.4.6-3-6.4-8.74-10.8-11.9-4.5-3.24-71.9-55.4-83-64l20.7 10.7c23.3 12.3 57.2 29.7 62.8 30.7 3.3.6 11.9.6 13.8.35 3.3-.4-1.4-2-1.9-5.5-.7-5.9-16.3-24.8-21.3-25.2z" class="st18"/>
  <path d="M191.8 329.27c-3.74-.38-8.36 2.25-1.1 8.12 7.5 6.1 15.36 11.1 15.36 11.1.25.3-.37.5-1.5.5-5.5-2.8-13.37-6.7-22.25-10.9-14.7-7.1-31.6-15.4-42.1-20.8-21.4-11-27-11-29.7-9.5-1.5.7-2.2 2.2-2.5 4.3-.6 5.6 10.5 15.1 20.1 22.7l11.9 8.9c12.1 9 32.9 24.5 40.6 31-2.5-1.2-5.7-2.7-9.1-4.2-8.6-4-20.6-9.7-31.5-13.5l-13-4.8c-13.5-5.2-23.2-8.8-27.5-6.7-1.1.5-1.7 1.4-2.1 2.5-1.6 5.4 7.7 12.7 20.9 22.5 2.8 2 5.4 3.9 7.5 5.6 3 2.3 8.4 6.5 14.6 11.1 9.5 7.2 22.8 17.2 29.3 22.6-7-3-20.2-9.2-32.2-14.7-19.5-9-37.8-17.5-41-18.3-3.2-.8-6 0-7.5 2-1.7 2.2-1.6 5.7.4 9.6 2.3 4.1 12.5 19.3 21.5 32.5 5.5 8.1 10.4 15.2 12.4 18.4.3.6.7 1.1.8 1.5-1.6-.8-4.9-2.7-7.1-4-1.5-1-3.1-1.9-4.5-2.8-3.2-1.9-5.6-2.2-7.2-1.2-1.2.7-1.3 1-1.8 1.7-.2.4-.4 1.2-.2 1.9 0 .2.3.7.8 1.5.1.1 3.1 3.9 5.8 5.6 6.5 4.8 14.1 10.7 20.8 10.2 6.8-.5 8.6-9.1-1.2-21.9-2.1-2.9-5-6.5-8.2-10.6L100 390.3h1.75l24.25 8.8c22.65 9.6 50.5 21.76 56.65 24.26 10.5 4.24 20 9.73 22.2 1.74 1.23-4.5-16.5-15.63-33.65-26.4l-38.6-27.3c-11.65-8.72-21.15-15.5-21.15-15.5s75.13 33.15 91.26 39.4l2.8 1c5.9 1.5 9.3-8.27.8-14.4-4.5-3.24-71.7-55.37-83-64l20.7 10.5c23.3 12.24 57.2 29.6 62.8 30.6 8.66 1.64 12.66.5 11.9-5.1-.7-5.6-21.8-24.38-26.7-24.75z"/>
  <path fill="#5bc6cc" stroke="#000" stroke-width="1.94" stroke-miterlimit="10" d="M297.8 125.4c-2 1.38-1.62 6.5-1.12 14.25.63 9.5 3.5 22.5 9.38 36.87 10.62 26.25 21.25 29.75 21.12 18.38-.12-11.38-4.12-29-8.75-44-4.62-15-15.87-28.62-20.62-25.5z" class="st21"/>
  <path fill="#f4d438" d="M572.3 264.52c-3.88.25-6.38 1.25-9-1.25-1.63-1.62-2.13-4.5 1.5-10 7.25-10.87 63.5-54.12 65.12-56.25 1.62-2.25-8.75-9.5-12.88-6-13.25 11-47 44.25-63.37 52.88-17.12 9-28.62 4.25-15.5-14.38 13.13-18.75 56.38-62 56.38-62s4.62-3.12 1.12-6.12-6.62-3.75-9-3.25c-2.5.5-43 47.5-49.75 58s-19.87 27.87-11.25 35.37c1.75 1.5 11.63 5.75 13.5 6.25 7.38 1.63 6.88-1.5 21-10.5 18-11.37 26.38-20.25 26.38-20.25s-28 21.63-31.88 29.38c-3.75 7.62-3.5 13.25 3.38 17.12 6.25 3.5 10.25 1.88 13.25 1.75 5.25-.12 11-3.75 10.37-7.12-1.62-7.63-3.75-4-9.37-3.63zM440.8 111.78s-6.75 10.75 1.5 17.37c8.88 7.25 37.75-7.87 40.25-29.75 2.87-26.25-27.87-34.75-50.5-5.5-22 28.38-36 79.62-22.12 100.5 13.87 20.87 59.5 4.12 71.5-12.63 12-16.74 1.12-8.87-8.76-.62-9.87 8.25-31.74 16.75-47.5 6.62-15.74-10.12-6.74-44.62 4-67.62 10.76-23 22.26-35.62 33.88-31.87 6.12 2 7.25 11.5 3.5 19.87-3.25 7.38-6.62 14.25-16.37 15.13-12.88 1.37-9.38-11.5-9.38-11.5z" class="st18"/>
  <path fill="#f4d438" d="M409.8 177.77s12.88 27.75 44.38 11.13c31.5-16.63 54.74-46.75 53.5-59.5-.63-7-5.5-5-7.5-3.12-7.5 7 1.12 11.75 16.37 16.5 18.5 5.62 35 5.5 18.5 34.62-16.5 29.25-35 54-14.63 51.25 18.38-2.38 38-27.13 38-27.13s-8.37 27.38-34.12 38.13c-25.25 10.5-33.13-4.5-20.63-30.88 7.88-16.62 28.13-45.62 23.88-50.62s-41-8.25-40.75-29.25c.25-17.75 20.37-20.75 29.12-15 5 3.25 13.88 17-17.37 54.25s-65.5 43.12-79.37 34.37c-13.88-8.62-9.38-24.75-9.38-24.75z" class="st18"/>
  <path d="M415.8 176.77s12.88 27.75 44.38 11.13c31.5-16.63 54.74-46.75 53.5-59.5-.63-7-5.5-5-7.5-3.12-7.5 7 1.12 11.75 16.37 16.5 18.5 5.62 35 5.5 18.5 34.62-16.5 29.25-35 54-14.63 51.25 18.38-2.38 24.88-23.75 24.88-23.75s4.75 23.87-20.88 34.62c-25.25 10.5-33.12-4.5-20.62-30.87 7.87-16.63 28.12-45.62 23.87-50.62s-44-8.25-40.75-29.25c2.75-17.5 20.25-17 24.63-13 4.37 4.12 18.25 15-12.88 52.24-31.12 37.25-65.5 43.13-79.37 34.38-14-8.5-9.5-24.63-9.5-24.63z"/>
  <path fill="#f4d438" d="M447.3 113.65c-1.12 1.75-2.5 5.13-2.37 10.5 0 2.13-4 1.38-5.13.63-2.87-1.88-2.12-8.88.38-12.63 4.25-6.5 11.12-4.87 14-2.87 2.87 2-4.88 1.5-6.88 4.37z" class="st18"/>
  <circle cx="451.55" cy="115.03" r="6.25"/>
  <path d="M448.68 109.53s-4.75 1.87-5.75 8.37c-.5 3.13.5 9.38 6.37 11.38 10.75 3.75 34.62-14.5 35.75-33.63 1-19.12-24.37-30.75-47-2.87-22.62 27.87-36 79.62-22.12 100.5 3.37 5 8.5 9 14.5 10.62 19.37 5.37 47.87-10.5 57-23.25 12-16.75 1.12-8.88-8.76-.63-4.37 3.63-11.12 3.88-17.87 7.63-10.37 5.87-20.75 4.62-29.5-1-15.75-10.13-6.75-44.62 4-67.62 10.75-23 22.25-35.63 33.87-31.88 11.63 3.75-.12 32-12.87 35.13-12.75 3-7.62-12.75-7.62-12.75z"/>
  <path fill="#f4d438" d="M628.17 213.77s34-8.87 27 8.25c-7.13 17.13-78.87 72.75-78.87 72.75s-6.88-.5-9.13-4c-2.37-3.5.88-7.25.88-7.25s48.12-40.62 62-52.12c6.37-5.38 6.12-5.63 4.62-5l-2.5 1s-9-5.13-4-13.63z" class="st18"/>
  <path fill="#f4d438" d="M639.04 228.65s24.88-2.63 36.63 9.25c11.75 11.87-27.38 37.37-49 53.5-21.63 16.12-33 29.37-25.38 35.87 6 5.12 6.8 11.75 2.3 10.75-4.6-1-26.9-16.25-7.4-35.25s62.7-48.87 66.1-54.87c5.9-10.63-37.4-6.5-31.5-11.75.7-.63 8.1-7.5 8.1-7.5z" class="st18"/>
  <path stroke="#000" stroke-width="2.15" stroke-miterlimit="10" d="M578.42 267.4c-3.37.87-7.12 2.25-9.87-.25-1.63-1.63-1.38-7.25 2.25-12.75 7.25-10.88 57.12-51.75 58.74-54 1.63-2.25-4.25-9.63-8.37-6.25-13.25 11-45.12 42.12-61.5 50.75-17.12 9-28.62 4.25-15.5-14.38 13.13-18.75 56.37-62 56.37-62s1.5-.25-2-3.24c-3.5-3-5.24-5-7.74-4.5s-41.13 45.87-47.88 56.37-19.5 27.25-10.87 34.62c2.25 2 4.5 3.5 6.87 4.38 6.5 2.5 14.13.37 27.38-8 18-11.38 26.37-20.25 26.37-20.25s-28 21.62-31.87 29.37c-3.75 7.63-4.25 12 2.62 16.13 3.5 2.12 8.38 1.5 11.5 1.5 5.25-.13 6.75-1.5 6.25-4.88-.62-3.5-2.75-2.62-2.75-2.62z" class="st22"/>
  <path fill="#f4d438" d="M685.8 248.02s-1.26 4.13-2.76 10.25c-1.75 6.88-3.37 16.38 5.38 25.63 16.5 17.37 35.37 12 30.75 3.87-4.63-8.12-34.88 7.63-56.88 19.87-22.2 12.25-63.5 39.5-63.5 39.5s-6.7.75-8.3-3.75c-1.7-4.5.3-7 .3-7s62.6-36.9 80.7-45c18.1-8.2 39.1-16.5 48.1-16.4 8.8.1 15.2 9.1 12.7 17.4-2.4 8.2-15.4 15-28.9 10-15-5.5-24.4-13.8-27.8-26.5-3.8-14.5 4.5-27.3 9.8-27.9z" class="st18"/>
  <path fill="#f4d438" d="M659.67 305.52s24.5-3 38.87 3.25c14.38 6.37 13.63 24.5-.75 26.37-23.3 3-43.4-28.37-43.4-28.37s20.7 19.12 35.2 17.12c12.2-1.8 4.5-10.5-8.2-14-6.6-1.8-23.1-2.7-23.1-2.7l1.2-1.8z" class="st18"/>
  <path fill="#f4d438" d="M655.8 308.14s11.37 5.25 13.87 24.5-8 29.25-24 39.38c-16 10.12-34.13 27-29.13 36 1.38 2.37 5.88 4.37 5.13 4.75-2.25 1-14.5-5.13-15-11.13-.63-8.25 2.87-17.12 20.87-29 18-11.87 33.63-23.12 32.75-34.12-.9-11.13-6-20.63-10.5-26.88s6-3.5 6-3.5z" class="st18"/>
  <path fill="#f4d438" d="M680.04 470.5c.5.76 2.75.4 2.88-.24 2.12-10.25.12-65.24-9.63-80.87-10.5-16.9-36-19.4-32.7-3.4 3.8 18 45.8 45.3 57.2 41.6 11.1-3.6-.5-44.3 13.6-46.4 14.1-2.2 23.7 14.2 26.1 30.2 1.6 11-7 5.3-12.5.7-1.1-1-4.4 5.3-3.8 6.7 2 4 10.7 6.4 15.5 6.5 8.4 0 12.5-5.5 8.9-20.9-4.3-18.1-18.3-32.8-28.4-34.4-10.1-1.7-21.1 3.3-23.3 13.6-2.2 10.2 3.6 33-.4 34.2-4 1.2-18-3.3-30-15.9-12-12.6-17.2-23.5-12-23.8 5.1-.3 17.8 12 20.2 24.6 1.7 8.7 7 66.5 8 67.4zm19.13-218.23c0 3.88-2.13 9.75-6.13 9.75-2 0-4.75 0-7-3.25-1.87-2.62-6.37-1.75-6.37-3.75 0-3.87 4.87-7.87 8.87-7.87 3.88 0 10.63 1.25 10.63 5.12z" class="st18"/>
  <path d="M690.54 248.65s-13.75 18.5 2.63 35.87c16.5 17.37 35.37 12 30.75 3.88-4.63-8.13-34.88 7.62-56.88 19.87-22.12 12.25-66.75 38.62-66.75 38.62s-3.4 1.6-5-2.9c-1.7-4.5.3-7 .3-7s62.6-36.9 80.7-45c18.2-8.1 35-15.3 43.8-15.1 8.8.1 15.2 8.6 12.7 16.8-2.4 8.2-15.5 14.3-28.4 8.3-12.9-6-20.5-12.1-24.7-24.6-4.2-12.9 5.1-28.3 10.5-28.9z"/>
  <path d="M664.42 306.14s22.62-2.5 37 3.88c14.37 6.37 13.75 26.87-6 25.12s-36.25-27.62-36.25-27.62 21 20.37 35.25 17.12c14.25-3.37-5.88-13-12.63-14-6.8-.87-18.7-2.62-18.7-2.62l1.2-1.88z"/>
  <path d="M660.54 308.77s11.38 5.25 13.88 24.5-8 29.25-24 39.37c-16 10.13-34.13 27-29.13 36 5.1 9-9.3 1.88-9.9-6.5-.7-8.25 2.8-17.12 20.8-29 18-11.87 33.6-23.12 32.7-34.12-.9-11.13-6-20.63-10.5-26.88s6-3.37 6-3.37z"/>
  <ellipse cx="693.29" cy="255.02" ry="7" rx="7.25"/>
  <path d="M631.54 216.27s30.63-9.5 23.5 7.5c-7.12 17.13-74.74 69.88-74.74 69.88s-5.75 2.62-8.13-.88c-2.37-3.5.88-7.25.88-7.25s48.87-39.75 62-52.12c13.12-12.38-1.13-6.88-1.13-6.88s-6.63-3.87-2.38-10.25z"/>
  <path d="M644.04 230.77s22.63-2.37 34.38 9.5c11.75 11.88-25.13 37.13-46.75 53.25-21.63 16.12-35.37 36-25.38 35.87 10-.2 7.8 10 3.3 9-4.7-1-27.9-14.5-8.4-33.5s62.7-48.9 66.1-54.9c5.8-10.6-37.4-6.5-31.5-11.8.7-.6 8.1-7.5 8.1-7.5z"/>
  <path fill="#f4d438" d="M703.67 351.14s9.37 6 11.5 2.38c1.25-2.13 1.12 2.25-2-1-1.88-1.88-2-5.13-.75-7.25 3.25-6 15.12-8 18.37 5 1.3 5.62-9 9.87-17 8-8.2-1.88-10.2-7.13-10.2-7.13z" class="st18"/>
  <path stroke="#000" stroke-width="1.94" stroke-miterlimit="10" d="M706.17 354.52s7.25 5 10.12 1.87c2.8-3-3-1.9-1.3-7.3s13.5-6.8 14.7 2.2c.7 5.7-5.8 12.7-13.9 10.8-8-1.9-9.8-7.8-9.8-7.8z" class="st19"/>
  <path d="M167.7 230.65c-3.76-.5-7.4 1.87-6.76 5.75.75 4.5 4.25 5.37 8.12 3.75 3.88-1.63 2.25-9-1.37-9.5z"/>
  <path fill="#f4d438" d="M247.43 575.76s-3.5-6.13-14.62-3c-8.6 2.5-15.8 16.5-13.6 28.62 1.8 9.88 11.3 17.13 24.3 16.75 15.3-.5 25.5-6.75 35.7-20 10.1-13.12 4.9-19.25-4.6-17.25s-22.5 11.62-30.9 27.25c-8.4 15.63-4 30.13 8.5 32.5 16.6 3.13 27.3-12.37 35.1-19.25 11.2-9.5 18.7-21.37 23.2-19.75 4.5 1.63-14.5 64.25-21 83.5-6.1 18.25-6.7 26.5-12.7 24.5-3-1-2.4-6 5-23.12 7.4-17.1 32-57 44.3-67.1 12.3-10.1 31.3-16.3 27.1 8.4-4.2 24.6-13.1 43.5-25 46.1-10.3 2.3-19 2.4-15.7-2.8 5.9-9.1 19.9 13.2 39.3 12.4 20.3-.7 21.8-14.4 21.8-14.4l-.8-9.2s-12.5 16.8-25.4 15c-12.9-1.7-17.3-17.1-29.8-14.7-12.7 2.4-13.7 14.2-11.1 17 4.8 5.5 14.3 5.2 27.5.5 16.6-5.8 23.3-14.7 29.8-33.2 7.9-22.2 2.1-38.1-14.2-41.7-16.4-3.6-37.5 11.2-53.1 33.7-15.6 22.5-24.4 40.1-29.1 57-4.7 16.9 3.2 28.6 15.4 25 10.9-3.2 12.8-22.4 16.5-36.1 3.8-13.7 24.7-79 27.8-90.6 3.1-11.6-8.2-11.2-15.7-4.2-5.7 5.3-18.2 20.5-35.5 36-15.2 13.7-31 12.2-30.5 1.8.5-10.3 6.8-21.8 14.3-29.3 7.4-7.4 16-9.7 15.1-3.9-1.1 7.7-18.1 28-36.8 22.2-22.2-7-11.7-33.1-4.2-35.5 7.5-2.4 14.4-2.5 14.4-2.5z" class="st18"/>
  <path fill="#f4d438" d="M364.8 668.63s13-14.25 20.88-25.37c12-17.13 10.62-31.13 19-29.63 10.25 1.88 10.37 6.5-1.63 35.13-8.5 20.37-16.37 49.24-13.25 52.24 5.75 5.5 16.88-10.62 23.63-21.12 6.75-10.37 15.12-22.5 15.12-22.5l4.88-.87s-26.38 54.7-40.38 56.9c-14 2.3-18.62-8-14.37-28.3 4.25-20.3 11.87-32.2 10-32.3-2-.1-13 16.5-18 21.5s-5.88-5.5-5.88-5.5m130.25-1.15s25.62-47.5 28.62-57.37c3-9.88-6.5-10.5-9.75-8-8.62 6.5-3.5 13.12 13.5 20.12 17.13 7.12 31.63 28.24 31.63 42.12 0 13.9-3.75 38.8-14.5 49.8-13.63 14-37.25 23.5-49.88 8.3-15.12-18.3 15-42.8 28-51.1 13.5-8.6 21.25-11.7 43.63-19 19.62-6.4 41.24-14.5 47.74-28 6.63-13.6 4-27.2-8.25-25.7-12.4 1.5-11.5 12.5-11.3 15.2.2 2.6 8.8 7.6 13.1 3.4 4.3-4.2-7.5 12-18.4 2.8-11.2-9.4 1.3-26.7 11.6-29 6.4-1.5 12-1.1 15.2 2.3 2.8 3 4.2 10.4 4.2 15.5-.3 11.1-1.8 25.9-32.6 45.6-30.9 19.9-48.7 16.1-66.2 32.5s-21.9 30.9-14.8 34c7.2 3 28.6-17.2 33.2-30.6 4.4-12.6 2.7-16.2 1.6-26.2-.2-.6-.2-1.4-.3-2-.2-.6-.2-1.2-.3-1.9-1.9-11.3-10.4-25.8-19.7-31.8-10.1-6.3-28.6-14.1-22.1-28.7 8.6-19.5 27.7-11.4 30.2-7.5 2.5 3.9 2.7 12.4-7 31.7-9.8 19.3-19.3 44.3-23.8 52.7-3.6 6.9-4-8.7-4-8.7z" class="st18"/>
  <path fill="#f4d438" d="M474.55 623.76c-1-6.25-14.75-15.88-30.62-5.75-10.88 7-19.88 34.5-20.88 58.2-1 23.6 7.63 58.6 45.38 40.5 22.74-10.9 37.37-53.3 41.12-61.6 3.75-8.2 12.62-29.8 12.62-29.8l-4.5-1.2s-29.87 61.5-43.5 74.5c-11.87 11.4-32.12 14.5-38-4.2-5.87-18.7 6.5-54.8 13.5-61.6 8.5-8.3 19.88-4.2 15.13 12.8-4.75 16.9-30.25 19.4-30.25 19.4l-3.62 7.6s18.37 1.4 30.5-10.1c12.12-11.6 14.74-27.7 13.12-38.3z" class="st18"/>
  <path d="M248.8 577.38s-3.5-6.5-12.12-3.87c-8.62 2.67-14.5 17.2-13.5 27.2s10.75 17.2 23.75 17.5c13 .5 22.63-6.5 32.75-19.6 10.13-13.1 4.25-17.3-5.25-15.3s-18.5 8.7-26.87 24.4c-8.38 15.8-6 29.9 6.5 32.3 16.62 3.1 29.25-12.1 37.12-18.9 11.13-9.5 18.63-21.3 23.13-19.7 4.5 1.7-14.5 64.3-21 83.5-6.1 18.3-6.7 26.5-12.7 24.5-3-1-2.4-6 5-23.1s32-57 44.3-67.1c12.3-10.1 31.3-16.3 27.2 8.4-4.2 24.7-13.1 43.5-25 46.2-10.3 2.3-19 2.4-15.7-2.8 5.9-9.1 17.9 12.9 37.3 12.1 20.4-.7 23.9-14 23.9-14l-.8-9.2s-12.8 18.3-25.6 16.4c-12.9-1.9-17.6-15.9-30.1-13.5-12.7 2.4-13.4 11.7-10.6 14.4 3.9 3.8 14.2 5.1 27.5.5 16.6-5.9 23.2-14.7 29.7-33.2 7.9-22.3 2.2-38.1-14.2-41.8-16.3-3.6-37.5 11.2-53.1 33.7-15.6 22.5-24.4 40.2-29.1 57-4.6 16.9 1 29 13.3 25.4 10.9-3.2 14.8-22.7 18.5-36.5 3.7-13.8 21.5-75 24.5-86.7 3-11.6-6.7-13.5-12.5-8.1-5.7 5.3-18.2 20.5-35.5 36-15.2 13.6-31 12.1-30.5 1.8.5-10.3 6.8-21.8 14.3-29.3 7.4-7.3 16-9.7 15.1-3.8-1.1 7.6-18.1 28-36.9 22.1-22.2-7-11.7-33.2-4.2-35.5 7.9-2.8 12-.5 12-.5z"/>
  <path d="M368.93 667.63s13-14.25 20.87-25.37c12-17.13 9.75-29.13 18-27.63 10.25 1.88 11.25 4.63-.62 33.25-8.5 20.38-16.38 49.25-13.25 52.25 5.75 5.5 16.87-10.62 23.62-21.12 6.75-10.3 15.13-22.5 15.13-22.5l4.87-.8s-27.87 54.4-41.87 56.6c-14 2.3-17.13-7.7-12.88-28.1 4.25-20.3 11.88-32.2 10-32.3-2-.1-12.87 17-18 21.8-1.25 1.3-3.75 3.8-4.5 3.7-2.37-.7-1.37-9.5-1.37-9.5m130.24-1.25s25.63-47.5 28.63-57.37c3-9.75-6.5-10.5-9.75-8-8.63 6.5-3.5 13.12 13.5 20.12 17.12 7.12 31.62 28.24 31.62 42.12 0 13.9-7.25 39.2-18 50.2-13.62 14-32.87 22.4-46.37 7.9-13.5-14.3 15.12-40.8 28.12-49.1 13.5-8.6 21.25-10.7 43.63-18.5 19.5-6.7 39.12-15.2 45.74-28.7 6.6-13.6 6-29-6.4-27.5s-11.5 12.5-11.3 15.2c.2 2.6 6.1 6.6 10.5 2.3 4.3-4.2-3.9 12.2-15.8 3.9-11.9-8.4 1.6-27.2 12.1-28.2 11.8-1.1 19.2 6 19 17-.2 11-1.8 25.9-32.7 45.7-30.9 19.9-48.6 16.2-66.1 32.5-17.5 16.4-21.9 30.9-14.8 34 7.2 3 28.6-17.2 33.2-30.6 4.6-13.3 3.1-18 1.8-29.5-1.2-11.6-10.6-26.1-20.5-32.3-10.1-6.3-28-13-21.5-27.6 8.6-19.5 26.8-10.3 29.4-6.3 2.6 4 3 10.2-6.8 29.5-9.7 19.3-19.2 44.3-23.7 52.7-3.5 6.8-3.9-8.8-3.9-8.8z"/>
  <path d="M477.05 625.5c-1-6.24-13.37-16.37-29.12-6.24-10.88 7-19.75 32.25-20.75 55.87-1 23.62 7.62 58.62 45.37 40.5 22.75-10.88 37.37-53.37 41.12-61.62 3.75-8.2 12.63-29.8 12.63-29.8l-4.5-1.2s-29.88 61.5-43.5 74.5c-11.87 11.4-32.12 14.5-38-4.2-5.87-18.7 6.5-54.8 13.5-61.6 8.5-8.3 19.87-4.2 15.12 12.8-4.74 16.9-30.24 19.4-30.24 19.4l-3.63 7.7s18.38 1.4 30.5-10.1c12.12-11.6 13.25-25.1 11.5-35.6zm-62.12-26.24s-8.25 1-8.13 6.87c.25 5.88 3 7.5 8.13 6 5.12-1.37 9.87-11.25 0-12.87zm195.1 7.87c-4.36-5.25-12.73-2.25-12.6 6.13.12 5.87 3 7.5 8.1 6 5-1.25 7.64-8.38 4.5-12.13zm-366.6-33.25s-8.25 1-8.12 6.88c.2 5.87 3 7.5 8.2 6 5.2-1.5 9.9-11.25 0-12.88z"/>
  <path fill="#5bc6cc" d="M259.3 421.27l32.88 55.62s33.75 25.8 114.5 26.6c74.87.6 116.74-21.8 116.74-21.8l26.75-60.5s-61.87 38.9-161.24 29.9-129.63-29.9-129.63-29.9z" class="st13" filter="url(#a)"/>
  <path fill="#ee3436" d="M261.68 381.9s43.63-34.38 93-40.5c49.37-6.13 75.25-5.38 122 7 46.74 12.37 79.37 49 79.37 49s-24 39.1-102.25 51.5c-78.25 12.36-133.5-15.5-147-22.5-13.62-7-33.62-25.13-45.12-44.5z" class="st23"/>
  <path fill="#f4d438" d="M145.3 266.52s18.76 7.75 34.14 21.88c15.37 14.12 23.87 29.37 23.87 29.37s2.9-.38-1.7-9c-5-9.25-20.8-24-25.6-27.62-4.7-3.63-22.7-15.5-30.6-14.63zm153.76-140.5s11.5-1.62 20.75 30.76c9.2 32.37 6.9 39.12 5.8 41.62-1.1 2.5-3.2.75-3.2.75s2.9 2 .7-11.63c-2.2-13.62-8.1-36.37-12.2-45.24-3.2-7-8.7-15.38-11.6-16.25zm371.48 296.5s.25 44.87 5.25 60.62 11.7 22.25 19.6 24.12c7.7 2 16-1.87 16-1.87s5-8.7 2.8-11c-2.2-2.4-1.5-3.7-1.5-3.7s-3.4-1.8-6 2c-2.7 3.7 2.7 7.1 2.7 7.1s-5.1 6-12.4.5c-7.3-5.4-15.5-26-16.5-39s-4.1-34.3-4.1-34.3l-2.1-6-3.9 1.4z" class="st18"/>
  <path stroke="#000" stroke-width="1.94" stroke-miterlimit="10" d="M679.8 476c.5.76 2.74.4 2.87-.24 2.12-10.25.12-65.24-9.63-80.87-10.5-16.9-34.24-22.9-30.74-6.9 3.87 18 44 48.7 55.37 45.1 11.12-3.7-.5-44.3 13.62-46.4 14.1-2.1 23.7 14.3 26.1 30.3 1.6 11-7 5.3-12.5.7-1.2-1-2.9.3-2.2 1.7 2 4 9.2 11.3 14 11.5 8.3 0 12.7-11.7 7.8-26.7-4.6-14.4-17.3-27-27.3-28.7-10-1.6-20.3 1.2-22.4 11.5-2.1 10.2 2.7 35.1-1.3 36.4-4 1.3-18-3.3-30-15.9-12-12.6-17.2-23.5-12-23.8 5.1-.3 17.8 12 20.2 24.6 1.4 8.7 6.6 66.3 7.7 67.3z" class="st19"/>
  <path d="M676.42 459.4s.37 7.6 2.25 18.24c1.12 6.37 4 13.75 7.12 18.75 6.7 11.1 22.6 15 28.7 6.1 6.1-8.9-3.1-15.4-6.1-9.3-1.9 3.7 3.5 5.6 3.5 5.6s-1.9 7.8-12.3 3.3-14.2-24.6-14.9-36c-.3-3.6-.2-7.8-.5-10.8-.9-7.6-7.9 3.9-7.9 3.9zM549.55 664.26s5.87-2.5 8.5-3.5c2.62-1 3.12 3.62 3.12 3.62l-12.25 4.75-6.87-4.87z"/>
  <path fill="#ffc43e" d="M570.92 387.02c-8.12-17.13-28.5-2.5-28.5-2.5l-2-2c-3.75-3.63-12-11.13-18.37-13.25l2.25 4.25c-2 .87-5.13 2.37-9 4.75-2.38 1.37-7.63 4.25-14.38 7.75l-14.37-25.38c6-3.25 9.87-5.25 9.87-5.25s-.87-.4-6.87-2.8-10.88-3.6-10.88-3.6c-4-1.4-14.87-4.9-19.87-4.9 0 0 2.75 4.9 6.5 11.7-6.75 3.5-15.37 8.1-24 12.7-3.62-7.4-7.37-14.8-10.12-20.4 6.87-4.4 11.62-7.4 11.62-7.4l-7.12-1.2c-2.75-.4-6.13-.8-9.25-1 0-.2-.13-.2-.13-.2s-13.25-1.9-19.75-1c0 0 1.13 2.1 3 5.7-6 3.8-14.62 9.3-23.37 14.8-5.38-10-10.38-19-10.38-19l-16.62 1.7-7.5 1c-6.75.8-9.5 1.7-9.5 1.7l-13.75 9.1-2.62-4.6-16.3 6.2 4.5 8c-4.8 3.2-12.6 8.6-20.2 13.7l-6-11-12.6 7.6c1.2 2.7 3.3 7.1 5.9 12.1l-9.4 6.4c-2.2-4.8-3-9.6-2.3-14.6 0 0-10.4-10.2-20.7-2.8-10.4 7.4-1.1 20.2 1.4 23.6 2.5 3.3-9.8 14.1 2 28.5 11.9 14.3 28.5 4.2 28.5 4.2s-4.7 12.3 6.5 20c11.3 7.6 24.5 10.1 32.7 5.8l8.1-4.3s-1.7 13 13.8 20 31.5-6.2 31.5-6.2 3.2 9 23.4 13 31-10.7 31-10.7 7.4 8.5 26.8 9.2c19.4.9 27.9-12.6 29.9-16.6 2-4 10.2 11.5 27.7 2.5s16.9-21.1 16.9-21.1 13.3 7 27.6-7.8c14.4-14.9 3.7-25.7 3.7-25.7s19.5-4.1 11.3-21.2zm-26.5 8.62v-.62.62zm0-.87v-1c-.12.25 0 .62 0 1zm-57.87-1.5c-9.25 4.75-18.87 9.75-26.37 13.75-4.38-8.75-8.88-18-12.5-25.5 8.12-4.63 16.75-9.25 24.5-13.38 5.24 9.5 10.87 19.38 14.37 25.13zm-100.25 51c-1.87-.13-3.87-.38-5.75-.5l-9.5-16.63c5.5-3.62 14.88-9.25 25.88-15.75.37.7.75 1.3 1 2 4.12 7.6 7.87 14.3 10.75 19.6-12.25 6.2-22 11.1-22.38 11.2zm3.88-45.38c-8.13 5.1-17.38 11-25.88 16.3l-11.25-19.8c8.63-4.8 18.38-10 27.25-15.3 3.38 6.3 6.75 12.8 9.88 18.6zm20.12 4.7l16.88-10.1c2-1.3 4.12-2.5 6.5-3.9 3.12 6.1 6.12 11.6 8.25 15.7 1.62 3 3.12 6 4.62 8.8-6.75 3.3-15.25 7.7-23.87 12.1-4-7.3-8.38-15.4-12.38-22.8zm6.5-46.5c3.13 5.9 6.5 12.6 10 19.2-7.5 4.2-14.25 8.1-18.5 10.8-1.37.8-3.12 2-5 3.2-1.75-3.4-3.25-6-4-7.7-1.25-2.5-3.25-6.4-5.75-11l23.25-14.8zm-54.25-10l10.25 19.4c-4.62 2.8-8.75 5.3-11.75 7.2-3.62 2.1-9 5.3-15.25 9.2l-10.62-18.6c13.25-8.4 27.37-17.3 27.37-17.3zm-48 30.2c1.26-.8 3.38-2.2 6-3.8l10.38 18.5c-7.5 4.6-15 9.2-21.12 13.1L300 387c5.9-4.1 11.7-8 14.7-9.73zm-35.85 24.2c.13 0 3.5-2.4 8.25-5.7 3.75 7 7.5 13.6 9.75 17.5l-1.87 1.1c-6.62-4.3-12-8.7-16.12-13zm43.63 26.7l-5.5-10c6-4 14.5-9.8 20.88-13.9l11.5 20.7c-8.1 5.2-13.7 8.2-13.7 8.2-4.6-1.7-9-3.4-13.1-5zm109.88 15.5l-2.7-5c6.1-2.9 13.8-6.6 22.1-11.3.5-.3 1-.5 1.5-.9 4.4 8.1 7.3 13.4 7.4 13.5-9.4 1.5-18.9 2.7-28.2 3.6zm43-6.3c0-.1-3.7-7.8-8.7-17.9 8.3-4.3 18-9.3 27.6-14.1 6.8 11.7 14.1 25 14.1 25l-4.7 1.1c-9.5 2.2-18.8 4.1-28.2 5.8zm47.9-12.4l-15-26.5c9.1-4.6 17.4-8.6 23.3-11.6l10.6 20.2c-2.7 6.1-8.2 12.6-18.8 17.8z" class="st25"/>
</svg>
