<?xml version="1.0" encoding="UTF-8" standalone="no"?>
<svg id="svg4480" xmlns:rdf="http://www.w3.org/1999/02/22-rdf-syntax-ns#" xmlns="http://www.w3.org/2000/svg" version="1.1" xml:space="preserve" height="283.44px" width="283.44px" enable-background="new 0 0 283.44 283.44" xmlns:cc="http://creativecommons.org/ns#" xmlns:dc="http://purl.org/dc/elements/1.1/" viewBox="0 0 283.44 283.44"><metadata id="metadata4558"><rdf:RDF><cc:Work rdf:about=""><dc:format>image/svg+xml</dc:format><dc:type rdf:resource="http://purl.org/dc/dcmitype/StillImage"/><dc:title/></cc:Work></rdf:RDF></metadata><g id="border" fill="#5ac6cc"><g id="g4514" fill="#5ac6cc"><path id="path4516" d="m36.798 172.99c-0.015 0.32 0.012 0.48 0 0z"/><path id="path4518" d="m169.63 35.492c0.097-0.001 0.146-0.001 0.241-0.002 0.176-0.08 0.34-0.149 0.498-0.202l-0.74 0.204z"/><path id="path4520" d="m209.65 36.187c0.099 0.014 0.166 0.023 0.258 0.035-0.02-0.049 0.04-0.094-0.26-0.035z"/><path id="path4522" d="m77.996 36.276c-0.369 0.013-0.572 0.041-0.719 0.074 0.21-0.028 0.427-0.053 0.719-0.074z"/><path id="path4524" d="m57.935 240.95s-0.093-0.052-0.162-0.09c0.12 0.091 0.239 0.182 0.365 0.278l-0.203-0.19z"/><path id="path4526" d="m57.137 240.62c-0.769-0.537 0.279 0.038 0.637 0.235-0.814-0.644-1.721-1.132-2.59-1.708-0.096 0.15 1.604 1.16 1.953 1.47z"/><path id="path4528" d="m190.38 246.24l-0.397 0.05c0.17-0.01 0.29-0.03 0.4-0.05z"/><path id="path4530" d="m81.949 42.302c-0.196 0.01-0.416 0.02-0.598 0.029 0.31 0.004 0.48-0.01 0.598-0.029z"/><path id="path4532" d="m169.53 246.12l-0.228 0.196c0.2-0.08 0.25-0.14 0.23-0.2z"/><path id="path4534" d="m170.37 35.289l0.288-0.076c-0.1 0.017-0.19 0.044-0.29 0.076z"/><path id="path4536" d="m241.76 56.611c-0.044 0.044-0.039 0.145-0.019 0.255 0.025 0.042 0.044 0.074 0.056 0.096l-0.04-0.351z"/><path id="path4538" d="m228.26 236.64c0.025 0.012 0.065 0.013 0.123 0.004l0.506-0.553c-0.31 0.24-0.51 0.42-0.63 0.55z"/><path id="path4540" d="m246.84 107.46c0.023 0.044 0.043 0.164 0.068 0.172 0.066-0.861 0.08-3.133 0.072-6.039l-0.241-0.178 0.1 6.05z"/><path id="path4542" d="m241.24 162.55l0.484-5.37c0.223 17.236-0.262 25.278 0.128 40.03l-0.105-0.817c-0.056 1.074 0.188 1.914 0.279 5.451 0.023 0.884 0.037 1.937 0.033 3.204-0.089 1.175-0.107 2.56-0.324 4.16-0.464 3.185-1.539 7.332-4.264 12.03l-0.043-0.022c-0.158 0.34-0.215 0.521-0.328 0.778-0.134 0.246-0.34 0.56-0.784 1.167 0 0 0.138-0.19 0.344-0.475 0.204-0.287 0.5-0.658 0.716-1.073 0.473-0.814 0.947-1.627 0.947-1.627-0.462 1.026-0.748 2.072-1.333 3.074-0.553 1.016-1.072 2.18-2.022 3.373-0.43 0.486-0.64 0.601-0.739 0.604 0 0-0.273 0.374-0.683 0.936-0.463 0.519-1.079 1.212-1.696 1.904-0.585 0.725-1.31 1.311-1.81 1.795-0.51 0.475-0.85 0.791-0.85 0.791s-0.118 0.081-0.294 0.203c-0.169 0.13-0.424 0.267-0.677 0.404-0.501 0.276-1.003 0.552-1.003 0.552-0.861 0.727-0.954 1.133-1.552 1.654-0.298 0.262-0.71 0.573-1.385 0.999-0.338 0.211-0.739 0.458-1.229 0.73-0.515 0.218-1.115 0.472-1.822 0.772 1.136-0.293 0.486 0.095-0.361 0.55-0.828 0.497-1.932 0.85-1.526 0.839-0.314 0.054-1.009 0.217-1.566 0.339-0.43 0.151-0.891 0.375-1.414 0.514-0.522 0.144-1.077 0.296-1.649 0.454-0.574 0.15-1.157 0.346-1.756 0.474-0.604 0.107-1.209 0.215-1.799 0.32-0.591 0.108-1.167 0.213-1.713 0.312-0.552 0.05-1.072 0.097-1.545 0.14-0.945 0.093-1.701 0.186-2.131 0.267 0 0 0.907 0.015 2.329 0.038 1.435 0.103 3.366-0.132 5.449-0.314 1.029-0.185 2.09-0.375 3.132-0.563 1.036-0.227 2.029-0.554 2.981-0.802 0.964-0.223 1.794-0.601 2.545-0.868 0.75-0.271 1.388-0.502 1.872-0.677-4.923 2.234-1.267 0.673-0.225 0.342l0.271-0.258c2.815-1.613 3.038-1.289 4.383-2.234-0.014-0.019-0.07-0.012-0.123-0.008l-0.145 0.157c-0.154 0.051-0.101-0.032 0.023-0.161-0.068-0.027 0.025-0.157 0.748-0.675l-0.118 0.126c0.518-0.446 1.317-0.938 1.962-1.552 0.667-0.587 1.303-1.147 1.688-1.487l0.182 0.161c0.755-0.968 3.708-3.802 6.163-7.26 0.578-0.883 1.252-1.726 1.748-2.629 0.503-0.905 0.987-1.777 1.432-2.578 0.787-1.654 1.336-3.074 1.639-3.851 1.219-3.153 1.689-7.343 1.859-11.521 0.11-6.567 0.361-3.282 0.577-6.575 0.151-4.111-0.281 0.832-0.298-0.817l0.336-4.924c0.029 2.862 0.175 1.309 0.268 0.785 0.041-4.256 0.484-10.968 0.002-12.278 0.231-5.743 0.424-5.757 0.447-8.219-0.088 0.825-0.168 2.462-0.265 2.476 0.213-2.3-0.052-1.099-0.1-0.158-0.209-3.509 0.878-18.209 0.349-18.947h0.096c-0.394-0.815-0.776 0.494-0.994-1.956l0.176-1.635-0.169-2.462c0.128-1.651 0.233-0.839 0.281-0.839-0.182-4.011 0.035-9.606 0.088-14.464l-1.074 5.145c0.248-4.098 0.751-11.492 0.406-12.31l0.361-2.462c0.689-8.217-0.299-5.737-0.092-9.016l0.393-4.127-0.007 4.107c0.199-4.107 0.328-5.749 0.584-9.024l-0.011-0.036c-0.016 0.226-0.035 0.372-0.059 0.402l-0.01-0.574c-0.196-0.498-0.33-2.64-0.317-5.533 0.055-4.109-0.234-7.322 0.182-13.883l-0.402-1.636 0.239-4.926h0.32c0.029 4.826 0.082 13.909 0.119 20.111l0.146 0.11c0-3.678-0.142-7.863-0.11-10.293 0.064-1.185 0.397-4.217 0.612-2.017l-0.313-2.272c-0.034-6.156 0.042-9.146-0.17-12.592 0.003-0.843-0.176-1.673-0.278-2.569-0.145-0.889-0.191-1.856-0.443-2.894-0.243-1.042-0.511-2.189-0.816-3.494-0.444-1.261-0.858-2.714-1.504-4.305 0 0 0.097 0.283 0.178 0.572 0.066 0.294 0.132 0.589 0.132 0.589-1.137-2.471-2.466-4.813-2.684-5.563-0.546-0.871-1.019-1.799-1.629-2.631-0.607-0.835-1.213-1.669-1.815-2.495-0.618-0.814-1.323-1.545-1.968-2.308-0.331-0.373-0.647-0.757-0.984-1.114-0.354-0.34-0.704-0.677-1.051-1.01-2.698-2.761-5.608-4.745-7.839-6.302 0 0-0.301-0.068-0.602-0.136-0.31-0.046-0.62-0.092-0.62-0.092-0.782-0.391-1.705-0.999-2.565-1.498-0.86-0.496-1.708-0.752-2.193-0.67 0 0-0.893-0.281-1.786-0.563-0.44-0.158-0.906-0.23-1.248-0.308-0.343-0.073-0.572-0.121-0.572-0.121-1.156-0.295-2.089-0.544-3.081-0.689-0.996-0.131-2.023-0.289-3.355-0.598-0.006-0.001-0.015-0.003-0.015-0.003-0.164-0.035-0.336-0.088-0.505-0.106-0.001 0.011 0.013 0.022 0.027 0.033-2.693-0.226-2.686-0.136-2.772-0.064-0.043 0.037-0.111 0.071-0.552 0.064-0.422-0.014-1.194-0.04-2.668-0.09-1.847-0.268-2.042 0.478-4.847 0.393l-2.816-0.541c-5.081-0.31-5.951 0.232-13.313 0.234-3.535-0.193-5.244-0.654-2.902-1.063-3.219 0.496-1.465 0.323-5.735 0.561-0.657-0.204-0.202-0.247 0.742-0.43-3.793-0.239-2.34 0.184-5.2 0.172-0.831 0.384-1.788 0.995-2.718 1.02l1.107 0.12c-3.028 0.205-6.335 0.301-9.857 0.108l0.133-0.193-3.747 0.098-0.236-0.247-5.35 0.077 0.733 0.067c-1.256 0.033-5.381 0.118-7.739-0.011l0.086-0.137c-6.655-0.428-12.141 0.133-19.934 0.178l1.023-0.28c-2.655-0.278-0.728 0.431-3.891 0.292l-0.158-0.344c-2.785 0.452-3.601-0.096-5.519-0.267l0.897 0.451-3.615-0.095c-3.981-0.149-2.443-0.569-1.861-0.805l-2.71 0.355-0.53-0.398c-1.98 0.463-1.98-0.074-5.451 0.174-0.286-0.15 0.592-0.237-0.588-0.301l-5.723 0.561 3.452-0.249-0.42 0.581c-3.595 0.441-4.87-0.063-7.438 0.099l1.769-0.173c-4.191 0.141-4.414-0.106-6.779-0.235 0.733 0.108 1.855 0.269 0.158 0.345-1.245 0.032-0.675-0.204-1.852-0.269-0.141 0.194-0.963 0.342-2.09 0.419-0.564 0.038-1.204 0.059-1.873 0.059-0.663-0.006-1.44 0.037-2.157 0.019 0.033-0.057 0.093-0.113 0.282-0.158-0.741 0.1-1.116 0.218-2.413 0.193l0.728-0.469s-0.621 0.123-1.232 0.282c-0.605 0.195-1.21 0.389-1.21 0.389-0.829 0.066-1.833 0.269-2.603 0.417-0.763 0.186-1.29 0.352-1.219 0.176l0.9-0.318s-0.767 0.189-1.918 0.473c-0.575 0.144-1.246 0.312-1.965 0.492-0.699 0.247-1.445 0.51-2.19 0.773-0.737 0.284-1.507 0.493-2.17 0.827-0.671 0.316-1.298 0.611-1.835 0.863-0.537 0.254-0.984 0.466-1.297 0.615-0.308 0.157-0.473 0.267-0.473 0.267l-0.319-0.209c-0.415 0.546-1.943 1.357-3.217 2.19-1.239 0.883-2.301 1.662-1.95 1.769-0.261 0.15-0.581 0.344-0.917 0.593-0.321 0.267-0.671 0.573-1.032 0.898-0.713 0.661-1.517 1.352-2.156 2.039-1.255 1.394-2.218 2.419-1.998 1.678-0.738 0.749-1.297 1.569-1.86 2.33-0.539 0.778-1.123 1.475-1.544 2.252-0.859 1.541-1.752 2.953-2.388 4.56-0.342 0.79-0.718 1.579-1.057 2.417-0.299 0.855-0.608 1.74-0.935 2.673-0.37 0.919-0.603 1.932-0.894 3.001-0.292 1.07-0.635 2.2-0.823 3.455-0.138 0.434-0.28 0.97-0.423 1.588-0.15 0.618-0.298 1.318-0.345 2.09-0.135 1.52-0.302 3.402-0.28 5.07-0.011 3.466-0.022 7.266-0.031 10.282 0.237 11.792 0.45 19.412 0.631 31.464-0.79 7.248 0.272 18.08-0.174 25.88l0.314 2.136c-0.5 5.184 0.112 13.101-0.376 20.375 0.137 1.783 0.181 2.718 0.192 3.132 0.015-0.33 0.075-0.832 0.274-0.99-0.14 2.077 0.035 6.279-0.363 5.979l-0.041-0.528c-0.398-0.305 0.186 6.304-0.159 8.622l0.427-1.271-0.072 3.935-0.082-1.053c0.237 4.273 0.33 7.96 0.349 11.338-0.006 1.689-0.011 3.3-0.016 4.87-0.005 0.393-0.009 0.783-0.014 1.17 0.014 0.413 0.028 0.824 0.042 1.233 0.028 0.819 0.056 1.631 0.084 2.442-0.002 0.814 0.182 1.609 0.267 2.417 0.114 0.804 0.211 1.616 0.349 2.426 0.197 0.8 0.395 1.606 0.596 2.424 0.2 0.819 0.404 1.649 0.734 2.457 0.306 0.815 0.618 1.645 0.937 2.495 0.336 0.842 0.801 1.652 1.221 2.505 0.219 0.422 0.441 0.85 0.667 1.285 0.233 0.429 0.528 0.832 0.798 1.257 0.566 0.833 1.103 1.72 1.76 2.561-1.726-1.556 2.201 2.557 1.945 3.041 1.21 1.809 2.562 3.345 4.122 4.477 1.465 1.244 3.107 2.08 4.56 3.071 0.014-0.021 0.065-0.019 0.249 0.069 0 0 0.077 0.057 0.212 0.158 0.143 0.089 0.346 0.216 0.591 0.369 0.49 0.305 1.143 0.711 1.797 1.117 0.327 0.202 0.655 0.405 0.962 0.595 0.323 0.161 0.624 0.312 0.882 0.441 0.518 0.256 0.863 0.427 0.863 0.427-3.598-1.019 4.225 1.44 0.947 0.471 3.618 1.721 7.795 3.121 12.315 3.624 4.643 0.464 8.954 0.264 13.479 0.29 9.014-0.035 18.326-0.102 27.081 0.009l-0.768-0.165c4.441 0.032 9.964-0.169 13.333 0.095 3.372 0.264 7.37-0.42 8.677-0.446 3.693-0.285 7.052 0.281 5.467 0.252 3.949-0.079 7.662-0.666 13.142-0.414 1.873 0.545 14.95-0.535 15.114 0.079l0.06-0.052c7.018 0.433 13.638-0.303 21.197 0.088 0 0-0.144 0.045-0.4 0.086l15.382-1.864-4.381-2.051-13.333-1.666-36.133 0.361-28.839-0.651s-17.546 0.055-35.091 0.11c-2.193 0.007-4.386 0.014-6.545 0.021-1.058-0.008-2.199 0.033-3.16-0.017-0.962-0.045-1.912-0.089-2.846-0.133-3.715-0.404-7.127-1.239-9.899-2.37-0.718-0.218-1.338-0.593-1.96-0.869-0.616-0.293-1.2-0.571-1.749-0.832-1.042-0.628-1.95-1.176-2.698-1.628-0.731-0.478-1.259-0.922-1.642-1.19-0.376-0.279-0.577-0.427-0.577-0.427s-0.247-0.148-0.618-0.369c-0.374-0.22-0.812-0.589-1.282-0.924-0.466-0.344-0.932-0.689-1.281-0.947-0.176-0.13-0.322-0.239-0.424-0.315-0.094-0.085-0.147-0.134-0.147-0.134-2.067-2.433-4.042-5.184-5.738-8.251-1.598-3.116-2.876-6.522-3.661-10.098l-0.436-2.714c-0.094-0.451-0.121-0.909-0.139-1.369l-0.078-1.376-0.081-1.375c-0.016-0.478-0.008-0.994-0.013-1.488-0.001-0.998-0.002-1.993-0.002-2.984 0.007-3.963 0.057-7.854 0.201-11.569l-0.398-0.308c-0.024-4.187 0.223-3.903 0.293-4.938-0.093-19.48-0.188-39.25-0.28-58.53-0.015-9.64-0.029-19.158-0.043-28.457 0.021-4.649 0.042-9.244 0.063-13.772 0.009-1.132 0.018-2.26 0.028-3.383l0.016-1.682 0.098-1.539c0.049-2.053 0.434-4.054 0.816-6.021 0.265-0.734 0.579-1.857 0.957-3.153 0.243-0.631 0.502-1.304 0.769-1.997 0.13-0.347 0.262-0.7 0.395-1.054 0.148-0.348 0.333-0.681 0.496-1.023 0.335-0.679 0.668-1.353 0.987-2 0.35-0.63 0.744-1.199 1.077-1.736 0.345-0.53 0.642-1.023 0.935-1.418 0.316-0.38 0.584-0.691 0.793-0.911 2.85-4.307 6.878-8.081 11.583-10.693 4.727-2.578 10.056-3.994 15.283-4.2l-0.393 0.064s0.307-0.02 0.768-0.051c0.476-0.022 1.042-0.094 1.726-0.097 1.342-0.019 2.685-0.038 2.685-0.038 0.228 0.033 0.255 0.08 0.083 0.111 6.057-0.353 15.6-0.004 23.017 0.14l-0.433 0.043c21.636 0.036 42.498-0.132 63.315-0.239 10.409-0.027 20.806-0.055 31.283-0.083l3.933 0.006c1.295 0.013 2.681-0.026 3.841 0.072 1.205 0.093 2.426 0.057 3.615 0.309 1.191 0.213 2.408 0.31 3.568 0.682 4.711 1.153 9.194 3.313 13.07 6.316 3.544 2.864 6.729 6.446 9.168 10.635 2.442 4.18 4.12 8.968 4.711 14.012 0.115 1.262 0.153 2.539 0.244 3.817 0.009 1.404 0.018 2.814 0.027 4.227 0.008 2.829 0.016 5.674 0.023 8.527-0.002 5.707-0.048 11.451-0.183 17.174-0.42 4.19-0.12 50.51 0.07 54.6z"/><path id="path4544" d="m234.22 227.04l0.097-0.133c-0.14-0.1-0.23 0.13-0.1 0.13z"/><path id="path4546" d="m246.36 135.06c-0.001 0.104-0.003 0.204-0.004 0.302l0.237-1.137-0.24 0.84z"/><path id="path4548" d="m246.5 196.33c0.053-2.754 0.012-2.881-0.055-2.494-0.01 1 0 1.87 0.06 2.49z"/><path id="path4550" d="m217.74 239.3c-1.266 0.452-0.757 0.371 0.025 0.202 1.289-0.489 2.186-0.829 2.186-0.829-0.72 0.21-1.46 0.42-2.21 0.63z"/><path id="path4552" d="m223.85 239.14l-0.339 0.314c0.74-0.39 0.69-0.42 0.34-0.31z"/></g></g><g id="mail" fill="#7f3f98" transform="matrix(1.4 0 0 1.4 52.306 51.424)"><g id="g7404" fill="#7f3f98"><path id="path7406" d="m118.5 27.4c-0.8-1.8-4.4-0.9-6-1.9-1.7-0.4-1.7 1.1-3.2 1-0.3-0.8-2.2 0.1-2.5-0.6h-3.2c-0.5-0.5-1.899-0.3-2.899-0.3-0.9-0.2-2.5 0.4-2.9-0.3-11.899-0.5-25.3-0.5-37.2 0-7.5 0.2-15.3 1.9-23.6 1.9-8.1 0-16.5-0.2-24.2 1-1.4 1.1-1.9 3.2-3.2 4.5-0.401 2.3-0.101 5.6-0.601 8.1 1.4 15.1 2.2 30.9 3.5 46.2 0 1.3 1.2 1.5 1.3 2.9 0.2 2.199 0.7 4.199 1.3 6 1 0.3 1.4 1.1 2.9 1 0-0.4 0.5-0.2 0 0-0.3 0.3-0.2 0.899-0.6 1-0.1 3 2.5 3.199 4.8 3.8 2.6 0.2 5 0.5 8 0.3 2.4 0.4 5.1 0.6 7.6 1h28.6c6.8-1 14.3-1.2 21-2.2 7.8 0 14.1-1.3 21.3-1.899 1.5-0.301 0.399 1.899 1.6 1.899 0.2 0.8 1 1.101 2.2 1 1.4-0.3 2-1.399 2.2-2.899 0.399-1.301 0.399-3 0.3-4.801v-10.3c0.4-6.399 0.9-12.7 1-19.4 0.7-6.1 0.3-13.2 1-19.4 0.1-3.3 0.6-6.2 1-9.2-0.2-1.9 0.5-2.9 0.6-4.5 0.2-1.5 0.9-2.9-0.1-3.9zm-97.7 6.1h21.6c8.3-0.9 16.7-1.8 26.1-1.6 0.5 0.1 0.8-0.5 1 0 0.3 0.3 1.6-0.3 1.6-0.3v0.3c1-0.1 1.301-0.2 1.9 0h0.6c0.801-0.1 1 0 2.2 0 0 0 0.101-0.4 0.3-0.3 0 0 0.101 0.3 0.301 0.3 0.6 0.1 1.8 0 2.899 0-0.1 0 0.2-0.5 0.3-0.3 0.4 0.5 1.7 0.3 2.9 0.3 2-0.1 2.3-0.1 4.5 0 7.1 0 13.9 0.3 20.1 1.3 1.301-0.1 0 0.5 0 1-0.399 0.3-1 0.5-1.3 1-0.7 0.6-1.6 1.1-2.2 1.9-1.899 0.9-3.399 2.1-5.1 3.2-3.4 2.2-6.8 4.4-9.9 7-0.8-0.3-0.6 0.6-1.3 0.6-0.5 0-0.6 0.9-1.3 1-0.3 0-1.2 0.7-1.6 1-0.301 0.2-0.801 0.5-1 1-2.101 0.7-3.2 2.4-5.101 3.2-3 2.6-6.3 4.9-9.2 7.6-2.1-1.2-4-2.6-5.7-4.1-2.2-0.8-3.8-2.2-5.7-3.2-1.6-1.2-3.6-2.1-5.1-3.5-4.1-1.7-7.5-4-11.5-5.7-7.9-3.5-15.2-7.7-22.9-11.5 0.501-1.1 1.501 0.2 2.601-0.2zm-6.1 0.3c0-0.1 0.7-0.6 1-0.3 0.2 0.2-1.3 0.9-1 0.3zm10.9 63.3c0.1-0.699 0.4-1.3 0.6-1.899 0.5 0.6 0.7 1.399 1 2.2-0.8 0.199-1.3-0.001-1.6-0.301zm12.4 0h-3.5c0.8-1.8 2-3.3 2.9-5.1 1.2 0.7 0.3 3.5 0.6 5.1zm73.8-55.3c-0.6 9.6-1.1 19.3-1.899 28.601v4.1c0.3 0.9-0.4 0.8-0.301 1.6v4.799c-0.8 3.199 0.301 8.3-1 11.1-2.399-0.2-3.899 0.6-6.399 0.3-7.8 1.6-17.3 1.5-25.1 3.2 0.3-1.9 1.6-2.7 1.9-4.5-0.2-0.9-0.5 0.5-1 0.3-0.3 0.4-0.3 1.2-1 1.3-0.2 1.2-0.9 1.9-1.3 2.9-3.101 0.3-6 0.8-9.2 1 1.3-2.4 3.4-4 4.1-7-1-0.8-1.699 0.6-2.199 1.3-0.801 0.7-1.401 1.6-1.901 2.5-0.9 0.5-1.4 1.4-2.5 1.601 0 0.8-0.5 0.899-0.3 1.899h-12.4c0-1.3 1.6-2.2 1-3.2-1.7 0.2-1.6 2.301-2.5 3.2-2.9-0.1-5.4 0.2-8 0.3-0.5-2.1-0.7-4.6-1.6-6.399-0.7-1.4 0.5-2 0-2.9-3.1 0.4-4.9 2.101-6.7 3.8-0.5-0.5-0.6-1.3-1.9-1-2.1 0.2-2.4 2-4.1 2.5 0.3-1.1 1.1-1.699 1-3.199-1.5 0.098-2.1 1.398-2.9 2.198-0.8 0.9-1.1 2.3-2.2 2.9 0 0.4-0.1 0.7-0.3 1-0.1 0.5 0.5 0.8 0 1-1.7 0-2.8-0.6-4.5-0.6 0.1-0.801 1.1-0.601 1-1.601 0.9 0 0.7 1 1.6 1 1.3-0.5 2.3-1.3 2.5-2.899 0.9-1 1.5-2.301 2.2-3.5 1.4-2.301 3-4.4 3.8-7.301-3.8 0.801-5.1 4-7.3 6.4 0 0.4-0.5 0.2 0 0 1.1-2.6 2.6-4.8 3.8-7.3 1-2.4 4-4.3 2.9-8-3.5-0.101-4.1 2.7-6 4.1-1 2.5-3 4-3.8 6.7-0.7-0.3 0-1.6 0.3-1.9-0.1-1.1 0.6-1.5 0.6-2.5 0.9-1.199 1.1-3.1 1.9-4.5 0.3-1.699 1.2-2.8 1.6-4.5 0.5-1.6 1.8-2.399 1.9-4.5-0.2-1-1.2-1.199-1.9-1.6-1.8 0.1-2.3 1.5-3.5 2.2-0.7 2.399-2.2 4-2.9 6.399-0.7-0.3-0.1-2-0.3-2.899 0.4-0.601 0.3-1.8 0.6-2.5 0-1 0.7-1.4 0.6-2.5 0.7-0.3 0.3-1.8 1-2.2 0.5-3.3 3.4-5.9 2.2-9.9-2.7-0.3-3.5 1.3-4.5 2.9-0.7-0.2-0.1-1.8-0.3-2.5-0.7-0.3-0.1-2-0.3-2.9-0.6-5-1.1-10.2-1.6-15.3 0.7 0.4 1 1.3 1.6 1.9 2.4 1.1 4.2 2.8 6.4 4.1 2.4 1.1 4.2 2.8 6.7 3.8 4.1 2.9 9.1 4.9 13.4 7.6 2.6 0.9 4.6 2.4 6.7 3.8 2.2 1.3 3.9 3.1 6.4 4.1 1.8 1.7 4.5 2.5 6 4.5 1.4 0.5 2.1 1.5 3.2 2.2 1.601 0.2 2.301 1.3 4.5 1 1.3-0.399 2.1-1.299 2.5-2.499 2-0.7 3.301-2.3 5.101-3.2 1.3-1.5 3.5-2.3 4.8-3.8 2.1-0.7 3.2-2.4 5.1-3.2 1.601-1.3 3.4-2.3 5.101-3.5 6.2-5.2 14-8.7 19.7-14.3 0.598 0.9 0.198 3.1-0.102 4zm-91.3 49.3c0.6 0.301-0.2 1.9-1 1.9-0.3-1.3 0.5-1.4 1-1.9zm93.2-59.5c0.1-0.4 0.3-0.2 0.3 0 0 0.3-0.3 0.1-0.3 0z" fill="#7f3f98"/></g></g></svg>
