<?xml version="1.0" encoding="UTF-8" standalone="no"?>
<svg id="svg4480" xmlns:rdf="http://www.w3.org/1999/02/22-rdf-syntax-ns#" xmlns="http://www.w3.org/2000/svg" version="1.1" xml:space="preserve" height="283.44px" width="283.44px" enable-background="new 0 0 283.44 283.44" xmlns:cc="http://creativecommons.org/ns#" xmlns:dc="http://purl.org/dc/elements/1.1/" viewBox="0 0 283.44 283.44"><metadata id="metadata4558"><rdf:RDF><cc:Work rdf:about=""><dc:format>image/svg+xml</dc:format><dc:type rdf:resource="http://purl.org/dc/dcmitype/StillImage"/><dc:title/></cc:Work></rdf:RDF></metadata><g id="border" fill="#5ac6cc"><g id="g4514" fill="#5ac6cc"><path id="path4516" d="m36.798 172.99c-0.015 0.32 0.012 0.48 0 0z"/><path id="path4518" d="m169.63 35.492c0.097-0.001 0.146-0.001 0.241-0.002 0.176-0.08 0.34-0.149 0.498-0.202l-0.74 0.204z"/><path id="path4520" d="m209.65 36.187c0.099 0.014 0.166 0.023 0.258 0.035-0.02-0.049 0.04-0.094-0.26-0.035z"/><path id="path4522" d="m77.996 36.276c-0.369 0.013-0.572 0.041-0.719 0.074 0.21-0.028 0.427-0.053 0.719-0.074z"/><path id="path4524" d="m57.935 240.95s-0.093-0.052-0.162-0.09c0.12 0.091 0.239 0.182 0.365 0.278l-0.203-0.19z"/><path id="path4526" d="m57.137 240.62c-0.769-0.537 0.279 0.038 0.637 0.235-0.814-0.644-1.721-1.132-2.59-1.708-0.096 0.15 1.604 1.16 1.953 1.47z"/><path id="path4528" d="m190.38 246.24l-0.397 0.05c0.17-0.01 0.29-0.03 0.4-0.05z"/><path id="path4530" d="m81.949 42.302c-0.196 0.01-0.416 0.02-0.598 0.029 0.31 0.004 0.48-0.01 0.598-0.029z"/><path id="path4532" d="m169.53 246.12l-0.228 0.196c0.2-0.08 0.25-0.14 0.23-0.2z"/><path id="path4534" d="m170.37 35.289l0.288-0.076c-0.1 0.017-0.19 0.044-0.29 0.076z"/><path id="path4536" d="m241.76 56.611c-0.044 0.044-0.039 0.145-0.019 0.255 0.025 0.042 0.044 0.074 0.056 0.096l-0.04-0.351z"/><path id="path4538" d="m228.26 236.64c0.025 0.012 0.065 0.013 0.123 0.004l0.506-0.553c-0.31 0.24-0.51 0.42-0.63 0.55z"/><path id="path4540" d="m246.84 107.46c0.023 0.044 0.043 0.164 0.068 0.172 0.066-0.861 0.08-3.133 0.072-6.039l-0.241-0.178 0.1 6.05z"/><path id="path4542" d="m241.24 162.55l0.484-5.37c0.223 17.236-0.262 25.278 0.128 40.03l-0.105-0.817c-0.056 1.074 0.188 1.914 0.279 5.451 0.023 0.884 0.037 1.937 0.033 3.204-0.089 1.175-0.107 2.56-0.324 4.16-0.464 3.185-1.539 7.332-4.264 12.03l-0.043-0.022c-0.158 0.34-0.215 0.521-0.328 0.778-0.134 0.246-0.34 0.56-0.784 1.167 0 0 0.138-0.19 0.344-0.475 0.204-0.287 0.5-0.658 0.716-1.073 0.473-0.814 0.947-1.627 0.947-1.627-0.462 1.026-0.748 2.072-1.333 3.074-0.553 1.016-1.072 2.18-2.022 3.373-0.43 0.486-0.64 0.601-0.739 0.604 0 0-0.273 0.374-0.683 0.936-0.463 0.519-1.079 1.212-1.696 1.904-0.585 0.725-1.31 1.311-1.81 1.795-0.51 0.475-0.85 0.791-0.85 0.791s-0.118 0.081-0.294 0.203c-0.169 0.13-0.424 0.267-0.677 0.404-0.501 0.276-1.003 0.552-1.003 0.552-0.861 0.727-0.954 1.133-1.552 1.654-0.298 0.262-0.71 0.573-1.385 0.999-0.338 0.211-0.739 0.458-1.229 0.73-0.515 0.218-1.115 0.472-1.822 0.772 1.136-0.293 0.486 0.095-0.361 0.55-0.828 0.497-1.932 0.85-1.526 0.839-0.314 0.054-1.009 0.217-1.566 0.339-0.43 0.151-0.891 0.375-1.414 0.514-0.522 0.144-1.077 0.296-1.649 0.454-0.574 0.15-1.157 0.346-1.756 0.474-0.604 0.107-1.209 0.215-1.799 0.32-0.591 0.108-1.167 0.213-1.713 0.312-0.552 0.05-1.072 0.097-1.545 0.14-0.945 0.093-1.701 0.186-2.131 0.267 0 0 0.907 0.015 2.329 0.038 1.435 0.103 3.366-0.132 5.449-0.314 1.029-0.185 2.09-0.375 3.132-0.563 1.036-0.227 2.029-0.554 2.981-0.802 0.964-0.223 1.794-0.601 2.545-0.868 0.75-0.271 1.388-0.502 1.872-0.677-4.923 2.234-1.267 0.673-0.225 0.342l0.271-0.258c2.815-1.613 3.038-1.289 4.383-2.234-0.014-0.019-0.07-0.012-0.123-0.008l-0.145 0.157c-0.154 0.051-0.101-0.032 0.023-0.161-0.068-0.027 0.025-0.157 0.748-0.675l-0.118 0.126c0.518-0.446 1.317-0.938 1.962-1.552 0.667-0.587 1.303-1.147 1.688-1.487l0.182 0.161c0.755-0.968 3.708-3.802 6.163-7.26 0.578-0.883 1.252-1.726 1.748-2.629 0.503-0.905 0.987-1.777 1.432-2.578 0.787-1.654 1.336-3.074 1.639-3.851 1.219-3.153 1.689-7.343 1.859-11.521 0.11-6.567 0.361-3.282 0.577-6.575 0.151-4.111-0.281 0.832-0.298-0.817l0.336-4.924c0.029 2.862 0.175 1.309 0.268 0.785 0.041-4.256 0.484-10.968 0.002-12.278 0.231-5.743 0.424-5.757 0.447-8.219-0.088 0.825-0.168 2.462-0.265 2.476 0.213-2.3-0.052-1.099-0.1-0.158-0.209-3.509 0.878-18.209 0.349-18.947h0.096c-0.394-0.815-0.776 0.494-0.994-1.956l0.176-1.635-0.169-2.462c0.128-1.651 0.233-0.839 0.281-0.839-0.182-4.011 0.035-9.606 0.088-14.464l-1.074 5.145c0.248-4.098 0.751-11.492 0.406-12.31l0.361-2.462c0.689-8.217-0.299-5.737-0.092-9.016l0.393-4.127-0.007 4.107c0.199-4.107 0.328-5.749 0.584-9.024l-0.011-0.036c-0.016 0.226-0.035 0.372-0.059 0.402l-0.01-0.574c-0.196-0.498-0.33-2.64-0.317-5.533 0.055-4.109-0.234-7.322 0.182-13.883l-0.402-1.636 0.239-4.926h0.32c0.029 4.826 0.082 13.909 0.119 20.111l0.146 0.11c0-3.678-0.142-7.863-0.11-10.293 0.064-1.185 0.397-4.217 0.612-2.017l-0.313-2.272c-0.034-6.156 0.042-9.146-0.17-12.592 0.003-0.843-0.176-1.673-0.278-2.569-0.145-0.889-0.191-1.856-0.443-2.894-0.243-1.042-0.511-2.189-0.816-3.494-0.444-1.261-0.858-2.714-1.504-4.305 0 0 0.097 0.283 0.178 0.572 0.066 0.294 0.132 0.589 0.132 0.589-1.137-2.471-2.466-4.813-2.684-5.563-0.546-0.871-1.019-1.799-1.629-2.631-0.607-0.835-1.213-1.669-1.815-2.495-0.618-0.814-1.323-1.545-1.968-2.308-0.331-0.373-0.647-0.757-0.984-1.114-0.354-0.34-0.704-0.677-1.051-1.01-2.698-2.761-5.608-4.745-7.839-6.302 0 0-0.301-0.068-0.602-0.136-0.31-0.046-0.62-0.092-0.62-0.092-0.782-0.391-1.705-0.999-2.565-1.498-0.86-0.496-1.708-0.752-2.193-0.67 0 0-0.893-0.281-1.786-0.563-0.44-0.158-0.906-0.23-1.248-0.308-0.343-0.073-0.572-0.121-0.572-0.121-1.156-0.295-2.089-0.544-3.081-0.689-0.996-0.131-2.023-0.289-3.355-0.598-0.006-0.001-0.015-0.003-0.015-0.003-0.164-0.035-0.336-0.088-0.505-0.106-0.001 0.011 0.013 0.022 0.027 0.033-2.693-0.226-2.686-0.136-2.772-0.064-0.043 0.037-0.111 0.071-0.552 0.064-0.422-0.014-1.194-0.04-2.668-0.09-1.847-0.268-2.042 0.478-4.847 0.393l-2.816-0.541c-5.081-0.31-5.951 0.232-13.313 0.234-3.535-0.193-5.244-0.654-2.902-1.063-3.219 0.496-1.465 0.323-5.735 0.561-0.657-0.204-0.202-0.247 0.742-0.43-3.793-0.239-2.34 0.184-5.2 0.172-0.831 0.384-1.788 0.995-2.718 1.02l1.107 0.12c-3.028 0.205-6.335 0.301-9.857 0.108l0.133-0.193-3.747 0.098-0.236-0.247-5.35 0.077 0.733 0.067c-1.256 0.033-5.381 0.118-7.739-0.011l0.086-0.137c-6.655-0.428-12.141 0.133-19.934 0.178l1.023-0.28c-2.655-0.278-0.728 0.431-3.891 0.292l-0.158-0.344c-2.785 0.452-3.601-0.096-5.519-0.267l0.897 0.451-3.615-0.095c-3.981-0.149-2.443-0.569-1.861-0.805l-2.71 0.355-0.53-0.398c-1.98 0.463-1.98-0.074-5.451 0.174-0.286-0.15 0.592-0.237-0.588-0.301l-5.723 0.561 3.452-0.249-0.42 0.581c-3.595 0.441-4.87-0.063-7.438 0.099l1.769-0.173c-4.191 0.141-4.414-0.106-6.779-0.235 0.733 0.108 1.855 0.269 0.158 0.345-1.245 0.032-0.675-0.204-1.852-0.269-0.141 0.194-0.963 0.342-2.09 0.419-0.564 0.038-1.204 0.059-1.873 0.059-0.663-0.006-1.44 0.037-2.157 0.019 0.033-0.057 0.093-0.113 0.282-0.158-0.741 0.1-1.116 0.218-2.413 0.193l0.728-0.469s-0.621 0.123-1.232 0.282c-0.605 0.195-1.21 0.389-1.21 0.389-0.829 0.066-1.833 0.269-2.603 0.417-0.763 0.186-1.29 0.352-1.219 0.176l0.9-0.318s-0.767 0.189-1.918 0.473c-0.575 0.144-1.246 0.312-1.965 0.492-0.699 0.247-1.445 0.51-2.19 0.773-0.737 0.284-1.507 0.493-2.17 0.827-0.671 0.316-1.298 0.611-1.835 0.863-0.537 0.254-0.984 0.466-1.297 0.615-0.308 0.157-0.473 0.267-0.473 0.267l-0.319-0.209c-0.415 0.546-1.943 1.357-3.217 2.19-1.239 0.883-2.301 1.662-1.95 1.769-0.261 0.15-0.581 0.344-0.917 0.593-0.321 0.267-0.671 0.573-1.032 0.898-0.713 0.661-1.517 1.352-2.156 2.039-1.255 1.394-2.218 2.419-1.998 1.678-0.738 0.749-1.297 1.569-1.86 2.33-0.539 0.778-1.123 1.475-1.544 2.252-0.859 1.541-1.752 2.953-2.388 4.56-0.342 0.79-0.718 1.579-1.057 2.417-0.299 0.855-0.608 1.74-0.935 2.673-0.37 0.919-0.603 1.932-0.894 3.001-0.292 1.07-0.635 2.2-0.823 3.455-0.138 0.434-0.28 0.97-0.423 1.588-0.15 0.618-0.298 1.318-0.345 2.09-0.135 1.52-0.302 3.402-0.28 5.07-0.011 3.466-0.022 7.266-0.031 10.282 0.237 11.792 0.45 19.412 0.631 31.464-0.79 7.248 0.272 18.08-0.174 25.88l0.314 2.136c-0.5 5.184 0.112 13.101-0.376 20.375 0.137 1.783 0.181 2.718 0.192 3.132 0.015-0.33 0.075-0.832 0.274-0.99-0.14 2.077 0.035 6.279-0.363 5.979l-0.041-0.528c-0.398-0.305 0.186 6.304-0.159 8.622l0.427-1.271-0.072 3.935-0.082-1.053c0.237 4.273 0.33 7.96 0.349 11.338-0.006 1.689-0.011 3.3-0.016 4.87-0.005 0.393-0.009 0.783-0.014 1.17 0.014 0.413 0.028 0.824 0.042 1.233 0.028 0.819 0.056 1.631 0.084 2.442-0.002 0.814 0.182 1.609 0.267 2.417 0.114 0.804 0.211 1.616 0.349 2.426 0.197 0.8 0.395 1.606 0.596 2.424 0.2 0.819 0.404 1.649 0.734 2.457 0.306 0.815 0.618 1.645 0.937 2.495 0.336 0.842 0.801 1.652 1.221 2.505 0.219 0.422 0.441 0.85 0.667 1.285 0.233 0.429 0.528 0.832 0.798 1.257 0.566 0.833 1.103 1.72 1.76 2.561-1.726-1.556 2.201 2.557 1.945 3.041 1.21 1.809 2.562 3.345 4.122 4.477 1.465 1.244 3.107 2.08 4.56 3.071 0.014-0.021 0.065-0.019 0.249 0.069 0 0 0.077 0.057 0.212 0.158 0.143 0.089 0.346 0.216 0.591 0.369 0.49 0.305 1.143 0.711 1.797 1.117 0.327 0.202 0.655 0.405 0.962 0.595 0.323 0.161 0.624 0.312 0.882 0.441 0.518 0.256 0.863 0.427 0.863 0.427-3.598-1.019 4.225 1.44 0.947 0.471 3.618 1.721 7.795 3.121 12.315 3.624 4.643 0.464 8.954 0.264 13.479 0.29 9.014-0.035 18.326-0.102 27.081 0.009l-0.768-0.165c4.441 0.032 9.964-0.169 13.333 0.095 3.372 0.264 7.37-0.42 8.677-0.446 3.693-0.285 7.052 0.281 5.467 0.252 3.949-0.079 7.662-0.666 13.142-0.414 1.873 0.545 14.95-0.535 15.114 0.079l0.06-0.052c7.018 0.433 13.638-0.303 21.197 0.088 0 0-0.144 0.045-0.4 0.086l15.382-1.864-4.381-2.051-13.333-1.666-36.133 0.361-28.839-0.651s-17.546 0.055-35.091 0.11c-2.193 0.007-4.386 0.014-6.545 0.021-1.058-0.008-2.199 0.033-3.16-0.017-0.962-0.045-1.912-0.089-2.846-0.133-3.715-0.404-7.127-1.239-9.899-2.37-0.718-0.218-1.338-0.593-1.96-0.869-0.616-0.293-1.2-0.571-1.749-0.832-1.042-0.628-1.95-1.176-2.698-1.628-0.731-0.478-1.259-0.922-1.642-1.19-0.376-0.279-0.577-0.427-0.577-0.427s-0.247-0.148-0.618-0.369c-0.374-0.22-0.812-0.589-1.282-0.924-0.466-0.344-0.932-0.689-1.281-0.947-0.176-0.13-0.322-0.239-0.424-0.315-0.094-0.085-0.147-0.134-0.147-0.134-2.067-2.433-4.042-5.184-5.738-8.251-1.598-3.116-2.876-6.522-3.661-10.098l-0.436-2.714c-0.094-0.451-0.121-0.909-0.139-1.369l-0.078-1.376-0.081-1.375c-0.016-0.478-0.008-0.994-0.013-1.488-0.001-0.998-0.002-1.993-0.002-2.984 0.007-3.963 0.057-7.854 0.201-11.569l-0.398-0.308c-0.024-4.187 0.223-3.903 0.293-4.938-0.093-19.48-0.188-39.25-0.28-58.53-0.015-9.64-0.029-19.158-0.043-28.457 0.021-4.649 0.042-9.244 0.063-13.772 0.009-1.132 0.018-2.26 0.028-3.383l0.016-1.682 0.098-1.539c0.049-2.053 0.434-4.054 0.816-6.021 0.265-0.734 0.579-1.857 0.957-3.153 0.243-0.631 0.502-1.304 0.769-1.997 0.13-0.347 0.262-0.7 0.395-1.054 0.148-0.348 0.333-0.681 0.496-1.023 0.335-0.679 0.668-1.353 0.987-2 0.35-0.63 0.744-1.199 1.077-1.736 0.345-0.53 0.642-1.023 0.935-1.418 0.316-0.38 0.584-0.691 0.793-0.911 2.85-4.307 6.878-8.081 11.583-10.693 4.727-2.578 10.056-3.994 15.283-4.2l-0.393 0.064s0.307-0.02 0.768-0.051c0.476-0.022 1.042-0.094 1.726-0.097 1.342-0.019 2.685-0.038 2.685-0.038 0.228 0.033 0.255 0.08 0.083 0.111 6.057-0.353 15.6-0.004 23.017 0.14l-0.433 0.043c21.636 0.036 42.498-0.132 63.315-0.239 10.409-0.027 20.806-0.055 31.283-0.083l3.933 0.006c1.295 0.013 2.681-0.026 3.841 0.072 1.205 0.093 2.426 0.057 3.615 0.309 1.191 0.213 2.408 0.31 3.568 0.682 4.711 1.153 9.194 3.313 13.07 6.316 3.544 2.864 6.729 6.446 9.168 10.635 2.442 4.18 4.12 8.968 4.711 14.012 0.115 1.262 0.153 2.539 0.244 3.817 0.009 1.404 0.018 2.814 0.027 4.227 0.008 2.829 0.016 5.674 0.023 8.527-0.002 5.707-0.048 11.451-0.183 17.174-0.42 4.19-0.12 50.51 0.07 54.6z"/><path id="path4544" d="m234.22 227.04l0.097-0.133c-0.14-0.1-0.23 0.13-0.1 0.13z"/><path id="path4546" d="m246.36 135.06c-0.001 0.104-0.003 0.204-0.004 0.302l0.237-1.137-0.24 0.84z"/><path id="path4548" d="m246.5 196.33c0.053-2.754 0.012-2.881-0.055-2.494-0.01 1 0 1.87 0.06 2.49z"/><path id="path4550" d="m217.74 239.3c-1.266 0.452-0.757 0.371 0.025 0.202 1.289-0.489 2.186-0.829 2.186-0.829-0.72 0.21-1.46 0.42-2.21 0.63z"/><path id="path4552" d="m223.85 239.14l-0.339 0.314c0.74-0.39 0.69-0.42 0.34-0.31z"/></g></g><g id="instagram" fill="#7f3f98" transform="matrix(1.7151 0 0 1.7151 32.152 33.155)"><g id="g5987" fill="#7f3f98"><path id="path5989" d="m106.49 69.633c-0.049-9.352-1.34-18.699-1.182-27.861-0.091-3.077-0.334-5.994-0.593-8.896-0.413-1.171-0.435-2.731-0.595-4.15-1.014-0.665-0.866-2.496-1.78-3.262-1.655-0.911-4.692-0.443-6.813-0.886-2.565-0.104-4.894-0.449-7.416-0.597-7.558-0.394-15.512-0.295-23.414-0.295-7.812 0-15.439-0.566-22.237-1.48h-8.597c-0.377 0.016-0.412 0.38-0.888 0.296-2.335 0.133-4.203 0.736-6.225 1.185-0.82 0.464-1.646 0.919-2.668 1.187-0.532 0.752-2.003 0.565-2.371 1.481-0.725 0.826 0.723 1.762 0 2.371v3.557c0.678 0.51 0.108 2.264 0.296 3.262v3.856c-0.065 5 0.521 9.36 0.295 14.522 1.826 10.784 1.461 25.526 0.299 36.757 0.606 2.262 1.417 4.315 1.778 6.819 0.999 1.867 1.305 4.422 2.666 5.931 1.961 0.805 4.814 0.725 7.411 0.893 1.495 0.381 2.604 1.146 4.45 1.186 11.102-0.818 21.459-0.602 32.903-0.892 10.561 0.937 22.655 0.737 32.313-0.89 0.764-0.521 0.503-2.066 0.89-2.966-0.217-1.5 0.811-1.753 0.889-2.963 0.517-9.341 0.642-18.691 0.589-28.165zm-50.689-24.309c2.954-0.598 5.78-1.331 9.484-1.187 2.77 0.296 5.025 1.103 7.408 1.78 0.453 0.718-0.952 2.135 0.599 2.669v0.296c0.228 0.065 0.582 0.008 0.591 0.299 1.739 0.136 3.102 0.651 4.152 1.48 1.758 0.213 2.094 1.856 4.443 1.48-0.354 0.832-0.328 2.049-0.297 3.263 1.268 4.616 1.858 10.97 1.187 16.602-0.644 0.639-0.841 1.729-1.187 2.668-1.211 1.258-1.877 3.062-3.261 4.148-0.369 0.919-0.979 1.591-1.774 2.078-0.453 0.832-0.803 1.768-1.783 2.072-1.164 0.639-2.254 0.043-3.258-0.297-1.744 0.633-3.531 1.217-4.744 2.372-3.186-0.374-6.436-0.683-9.487-1.187-0.945-0.541-1.903-1.065-3.261-1.187-0.881-0.797-1.935-1.424-3.262-1.776-0.394-0.498-1.317-0.463-1.777-0.892-0.774-0.118-0.894-0.885-1.78-0.893-0.461-1.61-1.728-2.416-2.077-4.146-0.879-1.293-1.202-3.143-1.777-4.743-0.167-5.599 0.358-10.513 1.483-14.822 1.35-2.308 3.04-4.271 4.444-6.522 0.971 0.079 1.426-0.35 1.484-1.187 1.193 0.208 1.693-0.282 2.669-0.294 0.996-0.289 1.039-1.528 1.781-2.074zm-6.524-10.671c-0.46-1.026-0.261-2.7-0.294-4.148-0.027-1.112 1.084-1.089 1.186-2.076-0.012-0.288-0.364-0.23-0.594-0.298 0.494-0.568 2.734-0.378 3.258 0 0.514 2.098-1.384 1.776-2.073 2.671 0.039 0.653 1.258 0.126 1.78 0.295 0.114 3.333-0.231 5.844 0 8.598h-1.78c-0.028 0.915 0.893 0.883 1.78 0.89-0.231 1.116 0.36 1.419 0.293 2.373-0.882 0.596-2.795 0.165-4.146 0.294-0.403-2.32 0.922-5.369 0.59-8.599zm-2.666-6.224c0.344-0.049 0.523 0.063 0.591 0.296 0.699 0.988 0.037 2.666-0.296 3.557-0.679-0.698-0.106-2.661-0.295-3.853zm0.592 7.114c-0.517-0.271-0.657-0.925-0.591-1.779 0.515 0.273 0.652 0.928 0.591 1.779zm0 5.336c-0.228 0.541-0.319-0.176-0.296-0.594 0.228-0.54 0.318 0.18 0.296 0.594zm-0.592 0.892c0.681-0.094 0.327 0.855 0.888 0.887-0.033 0.754-1.106 0.699-1.484 0.299 0.155-0.439 0.442-0.75 0.596-1.186zm-9.191-4.746c0.024-0.422 0.05-0.838-0.297-0.891-0.284-2.862 0.506-5.523 0-7.706 0.976-0.604 3-0.161 4.446-0.298v4.446c-0.344 0.251-0.793 0.394-1.479 0.298-0.212 1.096 1.264 0.514 1.479 1.188 0.031 3.328-0.218 6.938 0.595 9.483-2.208-0.23-3.539 0.417-5.632 0.298 0.376-2.392-0.071-5.604 2.073-6.225-0.043-0.55-1.003-0.182-1.185-0.593zm-2.074 0c-0.798 0.081-0.846-2.088-0.3-2.372 1.279 0.024 0.972 1.956 0.3 2.372zm-0.595 3.854c0.302-1.217 0.132-1.185 0.295-2.666 0.892 0.051 1.015 3.006-0.295 2.666zm0.891-8.004c-1.028 0.209-1.067-1.039-0.596-1.484 1.026-0.207 1.061 1.041 0.596 1.484zm0-4.446c0.126 0.62-0.202 0.784-0.296 1.188-0.685 0.089-0.33-0.857-0.892-0.893 0.094-0.401 0.743-0.245 1.188-0.295zm-0.891 14.528c0.579-0.12 0.431 1.346-0.297 0.887 0.155-0.24 0.309-0.483 0.297-0.887zm-2.669-14.528c0.113 1.013-1.712 1.25-1.479 0h1.479zm-3.853 0.296c-0.132 0.856-1.272 0.701-1.48 1.481-0.837-0.663 0.325-1.826 1.48-1.481zm-1.779 2.964c0.88-0.801 1.76-1.6 2.669-2.371-0.085-0.479 0.28-0.511 0.299-0.89h0.89c0.397 1.487-1.018 1.157-1.189 2.076 0.082 0.475-0.281 0.509-0.295 0.886 0.079 1.309 0.474 2.295 0.295 3.856-1.054 0.031-1.077 1.096-2.371 0.888 0.091-1.671-0.524-2.633-0.298-4.445zm0.298 12.749v-6.225c0.761-0.72 1.546-1.421 2.371-2.078 1.153 1.91 0.697 5.434 1.778 7.411-1.077 0.608-2.934 0.428-4.149 0.892zm71.147 43.279c-0.428 3.727-0.619 7.682-1.479 10.967-11.283 0.479-23.506 0.019-34.687 0.598-0.776 0.177-1.068-0.122-0.89-0.893-0.988 0-1.008 0.965-2.076 0.893 0.784-1.311 1.707-3.508 0.592-5.041-3.114 0.049-3.114 3.208-4.443 5.041-2.676-0.206-4.441 0.496-7.118 0.294 0.705-2.753 2.928-3.99 3.557-6.815-1.541-2.146-3.864 0.538-4.74 1.777-0.796 1.875-2.174 3.161-2.966 5.038h-3.854c0.932-1.83 1.912-3.616 2.963-5.335 0.669-1.999 2.442-2.895 2.668-5.338-0.615-1.094-1.642-0.114-2.668 0-0.48 0.709-1.063 1.308-1.481 2.076-0.908 1.467-1.958 2.787-2.669 4.447-0.708 0.812-1.308 0.014-2.073 0.887-1.516 1.06-2.266 2.875-3.857 3.855-0.68-0.234 0.151-1.393 0.597-1.484 0.178-0.705-0.375-2.148 0.294-2.371 0.247-1.431 0.828-2.53 1.48-3.554 0.466-2.899 2.037-4.685 2.671-7.414-2.183 0.388-2.634 2.509-3.856 3.854-0.83 1.74-2.118 3.018-2.667 5.04-0.68-0.507-0.11-2.263-0.297-3.261 0.478-2.289 1.165-4.369 1.484-6.818 0.518-0.86 0.674-2.092 0.89-3.26 0.657-0.811 0.181-2.381-0.299-2.969-0.88 0.109-1.461 0.519-1.778 1.186-0.749-0.126-0.754 1.975-1.185 1.188-0.176-10.1-1.763-18.793-1.781-29.047 0.102-1.29-0.714-1.656-0.889-2.671 6.361 0.108 12.187 0.352 18.676 0.89-0.345 0.542-0.775 1.004-1.186 1.48-0.564 0.275-0.881 0.677-1.479 1.186-2.36 6.457-3.806 15.557-2.37 24.014 0.892 2.267 2.301 4.021 3.851 5.632 3.54 1.895 6.385 4.486 9.784 6.521 6.643 1.412 14.996 1.442 21.638 0 0.921-0.465 1.889-0.879 2.671-1.483 5.326-4.851 10.752-9.601 11.562-18.972v-5.338c-0.771-6.242-2.688-11.345-6.82-14.228 1.292-0.86 4.288 0.169 6.521 0.297 0.869 0.051 1.744 0.052 2.67 0 1.59-0.094 3.619-0.216 5.633 0 0.56 0.728 0.443 2.124 0.888 2.966-0.239 6.575-0.752 12.884-0.594 19.861 0.399 1.774 0.495 3.853 0.893 5.63-0.352 3.805-0.921 7.387-1.781 10.674zm1.48-43.579c-2.494-0.468-4.814-1.108-7.411-1.479 0.282-1.301 3.12-0.039 3.854-0.887 1.502-0.87 1.152-3.594 1.187-5.931 0.129-1.357 0.449-2.513 0.297-4.151-1.563-3.714-6.963-1.644-11.267-1.779-0.876 2.803-1.834 7.03-1.186 10.375 0.658 1.913 4 1.142 5.93 1.781-0.547 1.295-2.688 0.224-3.854 0.296-1.157-0.325-2.761-0.204-3.853-0.591-8.924 0.302-16.729 0.014-25.496 0.591 0.458-4.872 0.248-9.626-0.295-14.231h12.153c-1.346 1.422-3.561 1.978-5.04 3.26-1.717 0.954-3.363 1.973-4.446 3.558 0.974 0.523 2.091-0.957 2.963-1.48 1.388-0.29 1.873-1.487 3.261-1.778 1.65-1.711 4.278-2.441 6.52-3.559 1.476-0.09 2.724 0.05 3.857 0.298 5.01 0.029 9.59 0.493 14.822 0.296 2.396 0.566 5.66 0.271 7.707 1.186 0.419 1.162 0.902 2.262 1.188 3.558 0.039 3.888-0.575 7.131-0.891 10.667zm-22.824-14.521c0.431-0.187-0.033-0.36 0 0zc-2.064 0.6-3.978 1.358-5.338 2.664 1.892-0.774 4.137-1.196 5.338-2.664zm4.15 2.369c0.43-0.184-0.032-0.357 0 0zm-6.818 3.557c2.838-0.615 4.609-2.307 6.818-3.557-1.707 0.073-2.312 1.25-3.855 1.481-0.838 0.844-2.344 1.016-2.963 2.076zm-2.67-3.262c-0.43 0.184 0.027 0.36 0 0zm-2.666 2.372c0.432-0.179-0.027-0.358 0 0zm-0.293 0.295c0.246 0.057 0.275-0.116 0.293-0.295-0.252-0.053-0.283 0.117-0.293 0.295zm-0.3 0.299c0.251 0.055 0.28-0.116 0.3-0.299-0.258-0.05-0.283 0.116-0.3 0.299zm-3.259 2.372c1.352-0.523 2.395-1.357 3.259-2.372-1.358 0.521-2.399 1.357-3.259 2.372zm8.889 3.854c2.083-0.191 2.926-1.623 4.744-2.073 1.109-1.165 3.061-1.489 3.854-2.966-2.183 0.089-2.988 1.559-4.744 2.074-1.113 1.157-2.934 1.613-3.854 2.965zm-8.889-3.854c-1.234-0.285-0.06 0.889 0 0zm-2.08 1.481c0.083 0.084 0.452-0.143 0.298-0.299-0.082-0.079-0.45 0.145-0.298 0.299zm10.969 2.373c-0.43 0.183 0.029 0.357 0 0zm-4.447 7.114c-0.873-0.905-2.642-0.913-3.852-1.481-2.722-0.15-4.777 0.363-6.819 0.891-1.186 0.591-2.371 1.186-3.554 1.773-1.036 0.646-1.735 1.631-2.965 2.078-0.804 0.875-1.375 1.988-2.67 2.372-0.017 0.868-0.675 1.098-1.187 1.479-0.349 0.446-0.368 1.215-0.887 1.483-0.026 0.472 0.14 1.134-0.296 1.185 0.425 5.902 1.136 11.513 2.668 16.308 1.118 2.433 3.809 3.302 5.63 5.04 2.299 1.158 5.185 1.734 8.303 2.074 1.084-0.203 2.156-0.413 3.557-0.298 4.72-0.816 8.189-2.876 10.972-5.632 0.388-1.094 0.981-1.979 1.774-2.668-0.99-2.619 1.146-4.284 1.779-6.228 0.008-5.246-0.785-9.688-2.374-13.336-1-2.26-3.59-2.934-5.333-4.447-0.23-0.069-0.588-0.01-0.591-0.299-1.048-0.509-2.858-0.909-4.155-0.294zm-13.336 16.895c-0.442-0.248-0.429-0.955-0.596-1.479 0.998-0.308 0.464 0.921 0.596 1.479zm0.294 1.188c0.157-0.458 0.309-0.02 0.298 0.295-0.158 0.457-0.312 0.019-0.298-0.295zm1.779-8.004c0.059-0.336 0.296-0.166 0.296 0-0.053 0.336-0.296 0.164-0.296 0zm6.522-8.3c-0.794 1.007 0.161 2.251 0.299 3.263-1.187-0.15-2.237-3.465-0.299-3.263zm1.482 15.415c-0.155-0.151 0.216-0.379 0.296-0.299 0.154 0.154-0.213 0.379-0.296 0.299zm2.963 11.263c0.136-0.429 0.261 0.032 0.595 0-0.073 0.376-0.588 0.299-0.595 0zm8.597-10.079c-0.91-0.221-0.566 0.814-1.481 0.596 0.269-0.623 0.462-1.319 0.892-1.778 0.521 0.071 0.672 0.506 0.589 1.182zm-4.445-14.822c0.823 0.464 1.725 0.847 2.37 1.486 0.33 0.858 0.947 1.422 1.482 2.07 0.225 3.039 0.698 5.822 0.592 9.189-1.006 0.383-1.715 1.055-2.666 1.485-3.047-0.021-5.304-0.825-7.41-1.779-0.668-1.013-1.389-1.971-2.076-2.964v-4.15c0.664-0.72 1.246-1.522 1.779-2.372 0.887-0.495 1.983-0.783 1.775-2.371-0.152-0.238-0.308-0.484-0.294-0.891 0.617 0.174 0.957 0.623 1.479 0.891 1.261 0.073 1.6-0.777 2.969-0.594z" fill="#7f3f98"/></g></g></svg>
